<?xml version="1.0" encoding="utf-8"?>
<!-- Generator: Adobe Illustrator 25.0.0, SVG Export Plug-In . SVG Version: 6.00 Build 0)  -->
<svg version="1.1" xmlns="http://www.w3.org/2000/svg" xmlns:xlink="http://www.w3.org/1999/xlink" x="0px" y="0px"
	 viewBox="0 0 300.82 220.02" style="enable-background:new 0 0 300.82 220.02;" xml:space="preserve">
<style type="text/css">
	.st0{display:none;}
	.st1{display:inline;}
	.st2{clip-path:url(#SVGID_2_);fill:#FFFFFF;}
	.st3{fill:#E4F1F7;}
	.st4{fill:#080717;}
	.st5{fill:#FFFFFF;}
	.st6{fill:#FFB000;}
	.st7{fill:none;stroke:#000000;stroke-width:2;stroke-linecap:round;stroke-linejoin:round;stroke-miterlimit:10;}
	.st8{fill:none;stroke:#080717;stroke-width:2;stroke-linecap:round;stroke-linejoin:round;stroke-miterlimit:10;}
	.st9{fill:#070A17;}
</style>
<g id="Layer_2" class="st0">
	<g class="st1">
		<defs>
			<rect id="SVGID_1_" x="-6143.36" y="-442.34" width="6602.94" height="1370.62"/>
		</defs>
		<use xlink:href="#SVGID_1_"  style="overflow:visible;fill:#FFFFFF;"/>
		<clipPath id="SVGID_2_">
			<use xlink:href="#SVGID_1_"  style="overflow:visible;"/>
		</clipPath>
		<rect x="-6143.36" y="-442.34" class="st2" width="6602.94" height="1370.62"/>
	</g>
	<g class="st1">
		<rect x="2.34" y="-12.36" class="st3" width="302.93" height="234.11"/>
	</g>
</g>
<g id="_x3C_Layer_x3E_">
	<g>
		<path class="st4" d="M97.8,198.79v21.22h202.66l-13.42-41.15c-4.47-13.7-16.43-23.6-30.72-25.43l-69.74-8.93
			c-12.41-1.59-24.66,3.87-31.78,14.15l-19.51,28.18L97.8,198.79z"/>
		<g>
			<path class="st5" d="M249.65,86.7c-0.65-1.62-1.44-2.88-2.41-3.85c-3.11-3.09-7.2-2.37-11.17-1.67
				c-3.79,0.66-7.38,1.29-10.03-1.34c-5.99-6.07-11.87-22.64-2.17-41.24l0.87-1.67l-1.75-0.7c-0.25-0.1-0.52-0.2-0.8-0.3l-0.1-0.04
				l-0.11-0.02c-1.21-0.25-2.87-0.56-4.54-0.85l-0.13-0.02l-0.13,0c-4.6-0.12-8.46,2-11.17,6.11c-2.15,3.27-3.99,6.4-5.79,9.45
				c-3.66,6.21-6.81,11.58-10.8,14.89c-4.52,3.76-10.76,6.36-12.56,7.07l-1.33,0.53l0.29,1.4c0.28,1.36,1.38,3.75,5.02,7.44
				c3.91,3.96-1.21,17.24-4.48,23.74c-0.65,0.89-1.13,2.49-0.35,4.12c0.26,0.54,0.64,1.06,1.13,1.55c3.1,3.08,10.97,5.04,23.45,5.83
				l-2.87,10.37l-5.36,16.92c-0.19,0.6-0.34,1.21-0.48,1.82l-5.32-0.68c-1.03-0.13-2.06-0.2-3.09-0.23
				c-0.34,1.7-0.52,3.45-0.52,5.25c0,15.65,13.46,28.34,30.06,28.34c15.81,0,28.77-11.51,29.96-26.13l-10.86-1.39l8.97-28.35
				l-9.57-1.5c0.17-0.68,0.23-1.42,0.16-2.23c-0.28-3.33-2.35-6.87-4.17-10c-1.44-2.47-3.07-5.27-2.49-6.19
				c0.15-0.24,0.8-0.77,3.51-0.53c8.94,0.79,16.22-3.26,19.48-7.63C250.11,92.19,250.68,89.26,249.65,86.7z"/>
			<path class="st4" d="M213.04,179.9c-17.13,0-31.06-13.16-31.06-29.34c0-1.8,0.18-3.63,0.54-5.44c0.09-0.47,0.5-0.81,0.98-0.81
				c0.01,0,0.02,0,0.03,0c1.21,0.04,2.22,0.12,3.18,0.24l4.42,0.57c0.09-0.36,0.19-0.69,0.29-1.01l5.36-16.92l2.54-9.15
				c-12.17-0.87-19.65-2.85-22.87-6.04c-0.57-0.56-1.01-1.18-1.32-1.82c-0.95-1.98-0.39-3.95,0.39-5.07
				c4.4-8.76,7.51-19.61,4.63-22.52c-3.07-3.11-4.85-5.78-5.29-7.94l-0.29-1.41c-0.1-0.48,0.16-0.95,0.61-1.13l1.33-0.53
				c1.77-0.7,7.88-3.25,12.29-6.91c3.85-3.2,6.97-8.49,10.57-14.62c1.7-2.89,3.63-6.16,5.82-9.49c2.9-4.42,7.06-6.68,12.03-6.57
				l0.12,0c0.05,0,0.1,0.01,0.15,0.02l0.13,0.02c1.81,0.32,3.44,0.62,4.57,0.86l0.11,0.02c0.04,0.01,0.08,0.02,0.12,0.03l0.1,0.04
				c0.31,0.11,0.59,0.21,0.85,0.31l1.75,0.7c0.26,0.11,0.47,0.32,0.57,0.58c0.1,0.27,0.08,0.56-0.05,0.81l-0.87,1.67
				c-9.46,18.13-3.8,34.2,1.99,40.08c2.27,2.26,5.46,1.7,9.14,1.06c4.02-0.7,8.57-1.5,12.04,1.95c1.07,1.07,1.94,2.44,2.63,4.19
				c1.16,2.9,0.54,6.17-1.73,9.23c-3.42,4.59-11.04,8.87-20.37,8.03c-1.72-0.15-2.38,0.04-2.58,0.12c-0.02,0.75,1.62,3.56,2.51,5.09
				c1.87,3.21,4,6.86,4.3,10.41c0.04,0.51,0.04,1-0.01,1.49l8.57,1.34c0.29,0.05,0.54,0.21,0.7,0.46c0.15,0.25,0.19,0.55,0.1,0.83
				l-8.61,27.2l9.67,1.24c0.53,0.07,0.91,0.54,0.87,1.07C242.76,168.02,229.16,179.9,213.04,179.9z M184.33,146.35
				c-0.23,1.41-0.35,2.82-0.35,4.21c0,15.07,13.04,27.34,29.06,27.34c14.75,0,27.24-10.58,28.87-24.26l-9.89-1.27
				c-0.29-0.04-0.56-0.2-0.72-0.45c-0.16-0.25-0.2-0.56-0.11-0.84l8.62-27.24l-8.42-1.32c-0.28-0.04-0.52-0.2-0.68-0.43
				c-0.16-0.23-0.21-0.52-0.14-0.79c0.15-0.62,0.2-1.24,0.14-1.91c-0.26-3.11-2.27-6.54-4.04-9.58c-2.09-3.59-3.33-5.86-2.47-7.23
				c0.57-0.88,2.02-1.2,4.44-0.99c8.55,0.76,15.5-3.09,18.59-7.23c1.84-2.48,2.37-5.07,1.48-7.29v0c-0.59-1.49-1.31-2.64-2.19-3.51
				c-2.74-2.72-6.4-2.08-10.29-1.4c-3.88,0.68-7.89,1.38-10.91-1.62c-6.19-6.28-12.3-23.34-2.35-42.41l0.36-0.69l-0.72-0.29
				c-0.24-0.09-0.49-0.19-0.76-0.28l-0.09-0.02c-1.2-0.25-2.85-0.55-4.51-0.85l-0.1-0.01c-0.11,0-0.22,0-0.33,0
				c-4.09,0-7.54,1.95-9.97,5.67c-2.16,3.29-4.07,6.54-5.76,9.41c-3.71,6.29-6.9,11.73-11.02,15.15c-4.64,3.86-11,6.51-12.83,7.24
				l-0.55,0.22l0.12,0.58c0.21,1,1.1,3.24,4.76,6.94c5.29,5.36-3.3,22.91-4.3,24.89c-0.03,0.05-0.05,0.1-0.09,0.14
				c-0.49,0.66-0.84,1.87-0.25,3.09c0.21,0.44,0.52,0.87,0.93,1.27c2.01,2,7.59,4.58,22.81,5.55c0.3,0.02,0.58,0.17,0.75,0.42
				c0.17,0.25,0.23,0.56,0.15,0.85l-2.87,10.37l-5.37,16.95c-0.16,0.51-0.31,1.08-0.45,1.73c-0.11,0.51-0.59,0.84-1.1,0.78
				l-5.32-0.68C185.8,146.46,185.11,146.39,184.33,146.35z"/>
		</g>
		<g>
			<path class="st6" d="M117.7,125.41l-93.63,1.14c-8.78,0.11-15.98-6.92-16.08-15.7L6.85,17.22C6.74,8.45,13.77,1.25,22.54,1.14
				L116.18,0c8.78-0.11,15.98,6.92,16.08,15.7l1.14,93.63C133.5,118.11,126.48,125.31,117.7,125.41z"/>
			
				<ellipse transform="matrix(0.9737 -0.2278 0.2278 0.9737 -7.8551 12.4361)" class="st5" cx="49.95" cy="40.25" rx="18.09" ry="18.09"/>
			<path class="st4" d="M7.94,106.99L7.7,87.49l8.66-8.88c6.41-6.56,16.92-6.69,23.48-0.29l0,0c6.21,6.06,16.17,5.94,22.23-0.27
				L96.1,43.2c8.08-8.28,21.34-8.44,29.61-0.36l6.96,6.79l0.68,55.83c0.13,10.91-8.6,19.86-19.51,19.99l-85.91,1.04
				C17.02,126.64,8.07,117.9,7.94,106.99z"/>
		</g>
		<g>
			<path class="st5" d="M120.62,151.63L120.62,151.63L120.62,151.63c-4.32-14.86-21.08-25.79-21.08-25.79l-30.86,0.24l-24.17,0.01
				c0,0-2.41-14.55-4.34-19.46c-1.93-4.91-9.75-4.74-9.75-4.74l2.24,15.08c0,0-6.21-13.43-8.44-16.42
				c-2.24-2.99-9.53-2.66-9.53-2.66l3.69,9.48c0,0-4.48-5.99-8.34-7.47C6.18,98.42,1,100.27,1,100.27l27.27,38.35l63.26,18.69
				l3.18,10.19l0,0l3.09,31.3h45.73C132.01,174.02,120.62,151.63,120.62,151.63z"/>
			<path class="st4" d="M143.53,199.79H97.8c-0.51,0-0.94-0.39-1-0.9l-3.08-31.19l-2.99-9.58l-62.75-18.54
				c-0.21-0.06-0.4-0.2-0.53-0.38L0.19,100.85c-0.18-0.25-0.23-0.58-0.14-0.88c0.09-0.3,0.32-0.54,0.62-0.64
				c0.23-0.08,5.57-1.96,9.73-0.36c1.72,0.66,3.51,2.1,5.03,3.57l-1.67-4.29c-0.12-0.3-0.08-0.64,0.09-0.91
				c0.18-0.27,0.47-0.44,0.79-0.45c0.8-0.04,7.89-0.26,10.38,3.06c1.27,1.7,3.72,6.52,5.67,10.53l-1.26-8.44
				c-0.04-0.28,0.04-0.57,0.22-0.79c0.19-0.22,0.46-0.35,0.74-0.36c0.35,0.01,8.54-0.12,10.71,5.38c1.7,4.33,3.71,15.63,4.25,18.83
				l23.32-0.01l30.85-0.24c0,0,0,0,0.01,0c0.19,0,0.38,0.06,0.55,0.16c0.7,0.45,17.05,11.26,21.47,26.25
				c0.75,1.49,11.83,23.34,22.89,47.12c0.14,0.31,0.12,0.67-0.06,0.96C144.19,199.62,143.87,199.79,143.53,199.79z M98.71,197.79
				h43.25c-11.16-23.91-22.12-45.49-22.24-45.71c-0.03-0.06-0.05-0.11-0.07-0.17c-3.89-13.36-18.36-23.65-20.42-25.07l-30.55,0.24
				l-24.17,0.01c-0.49,0-0.91-0.35-0.99-0.84c-0.02-0.14-2.41-14.5-4.28-19.26c-1.24-3.16-5.57-3.89-7.66-4.06l2.07,13.88
				c0.07,0.49-0.23,0.96-0.7,1.11c-0.48,0.14-0.98-0.09-1.19-0.54c-0.06-0.13-6.19-13.36-8.34-16.24c-1.27-1.7-4.92-2.18-7.27-2.26
				L19.3,107c0.18,0.47-0.01,0.99-0.45,1.24c-0.44,0.24-0.99,0.13-1.29-0.28c-0.04-0.06-4.35-5.77-7.89-7.13
				c-2.36-0.9-5.36-0.41-7.04,0.01l26.25,36.92l62.93,18.6c0.32,0.09,0.57,0.34,0.67,0.66l3.18,10.19c0.02,0.07,0.03,0.13,0.04,0.2
				L98.71,197.79z"/>
		</g>
		<g>
			<g>
				<path class="st4" d="M98.78,144.15c-0.43,0-0.83-0.28-0.96-0.71l0,0c-0.19-0.63-4.89-15.46-26.12-15.99
					c-21.99-0.55-27.44-0.6-27.49-0.6c-0.55,0-1-0.46-0.99-1.01c0-0.55,0.46-0.97,1.01-0.99c0.05,0,5.5,0.05,27.52,0.6
					c11.84,0.29,18.81,4.98,22.57,8.87c4.1,4.23,5.37,8.38,5.42,8.56c0.16,0.53-0.15,1.09-0.67,1.24
					C98.97,144.14,98.88,144.15,98.78,144.15z"/>
			</g>
			<g>
				<path class="st4" d="M36.58,141.2c-0.49,0-0.92-0.37-0.99-0.87c-0.3-2.32-6.19-37.83-6.25-38.19c-0.09-0.54,0.28-1.06,0.82-1.15
					c0.54-0.09,1.06,0.28,1.15,0.82c0.24,1.47,5.95,35.91,6.26,38.26c0.07,0.55-0.31,1.05-0.86,1.12
					C36.66,141.19,36.62,141.2,36.58,141.2z"/>
			</g>
			<g>
				<path class="st4" d="M31.4,140.5c-0.4,0-0.77-0.24-0.93-0.62L13.64,98.53c-0.21-0.51,0.04-1.09,0.55-1.3
					c0.51-0.21,1.09,0.04,1.3,0.55l16.83,41.35c0.21,0.51-0.04,1.09-0.55,1.3C31.65,140.48,31.52,140.5,31.4,140.5z"/>
			</g>
		</g>
		<g>
			<path class="st5" d="M147.73,214.11c-0.38,0-0.73-0.21-0.9-0.57l-12.44-26.26c-0.24-0.5-0.02-1.09,0.48-1.33
				c0.5-0.24,1.09-0.02,1.33,0.48l12.44,26.26c0.24,0.5,0.02,1.09-0.48,1.33C148.02,214.08,147.88,214.11,147.73,214.11z"/>
		</g>
		<g>
			<path class="st4" d="M230.89,93.97c-0.09,0-0.19-0.01-0.28-0.04c-0.53-0.15-0.84-0.71-0.68-1.24c1.03-3.57,4.83-5.2,8.41-6.32
				c1.24-0.39,4.99-1.56,6.92,0.88c0.34,0.43,0.27,1.06-0.17,1.4c-0.43,0.34-1.06,0.27-1.4-0.17c-0.72-0.92-2.28-0.99-4.75-0.21
				c-3.23,1.01-6.32,2.31-7.09,4.97C231.72,93.69,231.32,93.97,230.89,93.97z"/>
		</g>
		<g>
			<path class="st6" d="M186.77,65.97c-0.44,0-0.85-0.1-1.23-0.32c-2.69-1.56-1.12-7.53,1.83-12.61c1.5-2.59,3.28-4.84,5-6.33
				c2.54-2.2,4.14-2.04,5.04-1.52c0.89,0.52,1.82,1.83,1.18,5.13c-0.43,2.23-1.5,4.89-3.01,7.48l0,0
				C193.04,62.16,189.44,65.97,186.77,65.97z M196.16,46.86c-0.41,0-1.23,0.28-2.48,1.36c-1.56,1.34-3.18,3.41-4.58,5.82
				c-3.19,5.5-3.36,9.41-2.56,9.88c0.81,0.47,4.11-1.63,7.3-7.12c1.4-2.41,2.38-4.84,2.78-6.86c0.4-2.05,0.03-2.87-0.22-3.01
				C196.35,46.88,196.27,46.86,196.16,46.86z M194.71,57.29L194.71,57.29L194.71,57.29z"/>
		</g>
		<g>
			<path d="M211.43,117.66c0,0-0.01,0-0.01,0c-21.25-0.26-33.21-2.92-35.54-7.89c-0.97-2.07,0.06-3.77,0.37-4.21
				c2.64-5.26,8.5-19.53,4.51-23.57c-5.5-5.58-5.21-8.23-5.09-8.7c0.08-0.32,0.31-0.59,0.63-0.7c0.08-0.03,7.81-2.9,13.06-7.26
				c3.96-3.29,7.12-8.65,10.77-14.85c1.79-3.04,3.63-6.17,5.79-9.45c7.1-10.81,18.94-4.11,19.06-4.04c0.48,0.28,0.64,0.89,0.36,1.37
				c-0.28,0.48-0.89,0.64-1.37,0.37c-0.42-0.24-10.34-5.81-16.39,3.41c-2.12,3.24-3.96,6.35-5.73,9.37
				c-3.75,6.36-6.98,11.86-11.21,15.38c-4.63,3.85-10.87,6.5-12.95,7.33c0.21,0.83,1.05,2.9,4.5,6.39
				c5.73,5.81-3.15,23.91-4.19,25.95c-0.03,0.06-0.07,0.12-0.12,0.18c-0.02,0.03-0.77,1.01-0.17,2.23c0.92,1.9,6.05,6.37,33.74,6.71
				c0.55,0.01,0.99,0.46,0.99,1.01C212.43,117.22,211.98,117.66,211.43,117.66z"/>
		</g>
		<g>
			<path class="st6" d="M197.69,77.48c-0.6,0-1.07-0.16-1.44-0.38c-1.05-0.61-2.14-2.18-1.36-6.18c0.54-2.78,1.88-6.1,3.76-9.34
				c3.65-6.29,9.04-11.67,12.28-9.79c1.05,0.61,2.14,2.18,1.36,6.18c-0.54,2.78-1.88,6.1-3.76,9.34l0,0
				c-1.88,3.24-4.1,6.05-6.24,7.9C200.29,76.94,198.79,77.48,197.69,77.48z M209.46,53.41c-1.69,0-5.59,3.16-9.08,9.17
				c-1.77,3.06-3.03,6.15-3.53,8.72c-0.5,2.54-0.1,3.78,0.4,4.07c0.49,0.29,1.77,0.02,3.73-1.67c1.98-1.71,4.05-4.33,5.82-7.39l0,0
				c1.77-3.06,3.03-6.15,3.53-8.72c0.5-2.54,0.1-3.78-0.4-4.07C209.8,53.45,209.64,53.41,209.46,53.41z"/>
		</g>
		<g>
			<path class="st6" d="M200.2,61.06c-0.21,0-0.43-0.07-0.61-0.21l-5.04-3.89c-0.44-0.34-0.52-0.97-0.18-1.4
				c0.34-0.44,0.97-0.52,1.4-0.18l5.04,3.89c0.44,0.34,0.52,0.97,0.18,1.4C200.79,60.93,200.5,61.06,200.2,61.06z"/>
		</g>
		<g>
			<path class="st4" d="M201.16,98.13c-0.55,0-1-0.45-1-1c0-0.55,0.45-1,1-1c2.44,0,4.84-1.57,5.82-3.81
				c0.22-0.5,0.81-0.73,1.32-0.51c0.51,0.22,0.74,0.81,0.51,1.32C207.52,96.07,204.37,98.13,201.16,98.13
				C201.16,98.13,201.16,98.13,201.16,98.13z"/>
		</g>
		<path d="M212.81,162.59c0,0-10.93-13.35-3.02-24.32c7.92-10.97,21.78-10.71,21.08-18.9c-0.7-8.19-13.32-18.62-2.22-17.63
			c12.67,1.13,22.9-8,20.22-14.73c-4.8-12.02-16.78,0.15-23.42-6.58c-13.23-13.41-5.7-36.46-1.77-43.24
			c0.13-0.22-7.04-1.45-7.04-1.45s6.56-12.83,12.64-8.72s1.27,6.87,16.25,9.72c14.98,2.85,31.46,9.04,35.3,21.64
			c7.14,23.4-21.36,34.3-7.22,47.17c14.13,12.87,25.9,9.18,17.01,23s1.3,26.43,9.68,28.09
			C308.69,158.29,212.81,162.59,212.81,162.59z"/>
	</g>
</g>
</svg>
