<?xml version="1.0" encoding="utf-8"?>
<!-- Generator: Adobe Illustrator 25.0.0, SVG Export Plug-In . SVG Version: 6.00 Build 0)  -->
<svg version="1.1" xmlns="http://www.w3.org/2000/svg" xmlns:xlink="http://www.w3.org/1999/xlink" x="0px" y="0px"
	 viewBox="0 0 242.78 235.77" style="enable-background:new 0 0 242.78 235.77;" xml:space="preserve">
<style type="text/css">
	.st0{display:none;}
	.st1{display:inline;}
	.st2{clip-path:url(#SVGID_2_);fill:#FFFFFF;}
	.st3{fill:#E4F1F7;}
	.st4{fill:#080717;}
	.st5{fill:#FFFFFF;}
	.st6{fill:#FFB000;}
	.st7{fill:none;stroke:#000000;stroke-width:2;stroke-linecap:round;stroke-linejoin:round;stroke-miterlimit:10;}
	.st8{fill:none;stroke:#080717;stroke-width:2;stroke-linecap:round;stroke-linejoin:round;stroke-miterlimit:10;}
	.st9{fill:#070A17;}
</style>
<g id="Layer_2" class="st0">
	<g class="st1">
		<defs>
			<rect id="SVGID_1_" x="-3670.75" y="-143.52" width="6602.94" height="1370.62"/>
		</defs>
		<use xlink:href="#SVGID_1_"  style="overflow:visible;fill:#FFFFFF;"/>
		<clipPath id="SVGID_2_">
			<use xlink:href="#SVGID_1_"  style="overflow:visible;"/>
		</clipPath>
		<rect x="-3670.75" y="-143.52" class="st2" width="6602.94" height="1370.62"/>
	</g>
	<g class="st1">
		<rect x="-31.08" y="-0.85" class="st3" width="302.93" height="234.11"/>
	</g>
</g>
<g id="_x3C_Layer_x3E_">
	<g>
		<g>
			<path class="st5" d="M1,231.15l6.42-73.44c1.88-21.46,17.89-39.01,39.09-42.84l37.05-6.69l105.06,78.21l-3.2,45.84L1,231.15z"/>
			<path class="st4" d="M185.42,233.22c-0.02,0-0.05,0-0.07,0c-0.55-0.04-0.97-0.52-0.93-1.07l3.16-45.29L83.31,109.23l-36.62,6.62
				c-20.7,3.74-36.44,20.99-38.27,41.95L2,231.24c-0.05,0.55-0.53,0.96-1.08,0.91c-0.55-0.05-0.96-0.53-0.91-1.08l6.42-73.44
				c1.91-21.85,18.32-39.84,39.91-43.74l37.05-6.69c0.27-0.05,0.55,0.02,0.77,0.18l105.06,78.21c0.27,0.2,0.42,0.53,0.4,0.87
				l-3.2,45.84C186.38,232.81,185.94,233.22,185.42,233.22z"/>
		</g>
		<g>
			<circle class="st4" cx="110.26" cy="19.96" r="19.96"/>
			<g>
				<path class="st5" d="M59.97,109.88l13.6-42.85l35.15,11.15l-12.25,38.59c5.07,5.41,8.34,11.57,4.91,16.93
					c-8.39,13.13-32.47,0-43.05-9.49c-10.58-9.49-10.58-9.49-10.58-9.49L59.97,109.88z"/>
				<path class="st4" d="M90.29,140.25c-11.3,0-25.71-9.07-32.63-15.28l-10.58-9.49c-0.26-0.23-0.38-0.58-0.32-0.92
					c0.06-0.34,0.29-0.63,0.61-0.75l11.78-4.68l13.45-42.4c0.17-0.53,0.73-0.82,1.26-0.65l35.15,11.15
					c0.25,0.08,0.46,0.26,0.59,0.49c0.12,0.24,0.15,0.51,0.07,0.76L97.6,116.53c6.23,6.82,7.79,12.78,4.63,17.72
					c-2.11,3.31-5.27,5.27-9.38,5.83C92.02,140.2,91.16,140.25,90.29,140.25z M49.62,115.08l9.38,8.41
					c13.54,12.14,27.78,15.41,33.58,14.62c3.5-0.48,6.18-2.14,7.97-4.93c2.67-4.18,1.05-9.46-4.8-15.71
					c-0.25-0.26-0.33-0.64-0.22-0.99l11.94-37.64L74.21,68.29l-13.29,41.9c-0.09,0.29-0.31,0.52-0.58,0.63L49.62,115.08z
					 M59.97,109.88L59.97,109.88L59.97,109.88z"/>
			</g>
			<path class="st4" d="M66.99,91.46l9.31-24.7l33.3,12.2l-10.36,32.08C87.27,111.77,75.53,101.62,66.99,91.46z"/>
			<g>
				<path class="st5" d="M50.33,52.76C48.84,32.56,62.42,13.85,82.78,9.48l7.18-1.54c15.93-3.42,31.61,6.72,35.03,22.65l7.15,33.31
					c3.42,15.93-6.72,31.61-22.65,35.03l-5.7,1.22C84.9,104.2,66.26,95.09,57.4,79c-3.47,1.13-7.39,0.88-10.83-1.04
					C40,74.3,37.63,66.01,41.29,59.44C43.28,55.87,46.63,53.55,50.33,52.76z"/>
				<path class="st4" d="M94.97,102.08c-15.43,0-30.19-8.25-38.05-21.9c-3.64,0.96-7.55,0.48-10.84-1.35
					c-3.41-1.9-5.88-5.01-6.95-8.77c-1.07-3.76-0.61-7.7,1.28-11.12c1.9-3.42,5.1-5.92,8.86-6.96
					c-1.1-20.54,13.08-39.14,33.29-43.48l7.18-1.54c7.96-1.71,16.12-0.21,22.96,4.21c6.84,4.42,11.55,11.25,13.26,19.21l7.15,33.31
					c3.53,16.44-6.98,32.69-23.42,36.21l-5.7,1.22C100.99,101.77,97.97,102.08,94.97,102.08z M57.4,78c0.36,0,0.7,0.19,0.88,0.52
					c8.81,15.99,27.44,24.49,45.3,20.65l5.7-1.22c15.36-3.3,25.18-18.48,21.88-33.84l-7.15-33.31c-1.6-7.44-6-13.82-12.39-17.95
					c-6.39-4.13-14.01-5.53-21.45-3.93l-7.18,1.54C63.47,14.65,49.86,32.8,51.33,52.68c0.04,0.5-0.3,0.95-0.79,1.05
					c-3.56,0.77-6.62,3.03-8.38,6.19c-1.64,2.95-2.03,6.35-1.11,9.6c0.92,3.24,3.06,5.93,6,7.57c3.09,1.72,6.65,2.06,10.04,0.96
					C57.19,78.01,57.3,78,57.4,78z"/>
			</g>
			<g>
				<path class="st6" d="M128.82,68.98c-1.53,0-3.06-0.25-4.56-0.75c-7.47-2.5-11.5-10.62-9-18.08l0,0c2.51-7.47,10.62-11.5,18.08-9
					c3.62,1.21,6.55,3.76,8.25,7.18c1.7,3.42,1.97,7.29,0.75,10.91c-1.21,3.62-3.76,6.55-7.18,8.25
					C133.17,68.48,131,68.98,128.82,68.98z M117.16,50.78c-2.15,6.42,1.32,13.4,7.74,15.55c3.11,1.04,6.44,0.81,9.38-0.65
					c2.94-1.46,5.13-3.98,6.17-7.09c1.04-3.11,0.81-6.44-0.65-9.38s-3.98-5.13-7.09-6.17C126.29,40.89,119.32,44.36,117.16,50.78
					L117.16,50.78z"/>
			</g>
			<g>
				<path class="st6" d="M98.02,71.99c-1.5,0-3.03-0.24-4.53-0.74c-3.62-1.21-6.55-3.76-8.25-7.18c-1.7-3.42-1.97-7.29-0.75-10.91
					l0,0c1.21-3.62,3.76-6.55,7.18-8.25c3.42-1.7,7.29-1.97,10.91-0.75c7.47,2.5,11.5,10.62,9,18.08
					C109.58,68.22,104,71.99,98.02,71.99z M98.02,45.42c-1.87,0-3.74,0.43-5.46,1.29c-2.94,1.46-5.13,3.98-6.17,7.09l0,0
					c-1.04,3.11-0.81,6.44,0.65,9.38c1.46,2.94,3.98,5.13,7.09,6.17c6.42,2.15,13.4-1.32,15.55-7.74c2.15-6.42-1.32-13.4-7.74-15.55
					C100.66,45.63,99.34,45.42,98.02,45.42z M85.44,53.49L85.44,53.49L85.44,53.49z"/>
			</g>
			<g>
				<path class="st6" d="M65.33,59.76c-0.49,0-0.92-0.36-0.99-0.86c-0.08-0.55,0.3-1.05,0.85-1.13l19.54-2.8
					c0.54-0.08,1.05,0.3,1.13,0.85c0.08,0.55-0.3,1.05-0.85,1.13l-19.54,2.8C65.42,59.75,65.38,59.76,65.33,59.76z"/>
			</g>
			<g>
				<path class="st6" d="M111.25,54.78c-0.46,0-0.88-0.32-0.98-0.79c-0.11-0.54,0.23-1.07,0.77-1.19l4.69-0.99
					c0.54-0.12,1.07,0.23,1.19,0.77c0.11,0.54-0.23,1.07-0.77,1.19l-4.69,0.99C111.39,54.77,111.32,54.78,111.25,54.78z"/>
			</g>
			<path class="st4" d="M102.03,57.26c0.3,2.2,1.68,3.82,3.07,3.63c1.4-0.19,2.29-2.13,1.99-4.32c-0.3-2.2-1.68-3.82-3.07-3.63
				C102.62,53.13,101.73,55.07,102.03,57.26z"/>
			<path class="st4" d="M120.64,54.71c0.3,2.2,1.68,3.82,3.07,3.63c1.4-0.19,2.29-2.13,1.99-4.32c-0.3-2.2-1.68-3.82-3.07-3.63
				C121.23,50.58,120.34,52.51,120.64,54.71z"/>
			<g>
				<path class="st4" d="M115.37,77.1c-2.23,0-4.75-0.79-6.69-3.35c-0.33-0.44-0.25-1.07,0.19-1.4c0.44-0.33,1.07-0.25,1.4,0.19
					c3.28,4.3,8.23,1.91,8.44,1.81c0.49-0.24,1.09-0.04,1.34,0.45c0.25,0.49,0.05,1.09-0.44,1.34
					C118.62,76.63,117.08,77.1,115.37,77.1z"/>
			</g>
			<g>
				<path class="st4" d="M89.01,43.47c-0.24,0-0.48-0.09-0.68-0.26c-0.41-0.37-0.43-1.01-0.06-1.41c5.18-5.65,13.73-4.04,14.09-3.97
					c0.54,0.11,0.89,0.63,0.79,1.17c-0.11,0.54-0.63,0.9-1.17,0.79c-0.08-0.01-7.82-1.45-12.23,3.36
					C89.55,43.36,89.28,43.47,89.01,43.47z"/>
			</g>
			<g>
				<path class="st4" d="M118.09,40.52c-0.3,0-0.6-0.14-0.8-0.4c-0.33-0.44-0.24-1.07,0.2-1.4c0.25-0.19,6.19-4.56,13.43-1.72
					c0.51,0.2,0.77,0.78,0.57,1.3c-0.2,0.51-0.78,0.77-1.3,0.57c-6.18-2.42-11.29,1.3-11.5,1.46
					C118.51,40.46,118.3,40.52,118.09,40.52z"/>
			</g>
			<g>
				<path class="st4" d="M61.56,71.02c-0.53,0-0.97-0.42-1-0.95c0-0.06-0.34-6.13-3.78-9.1c-1.47-1.26-3.33-1.79-5.55-1.56
					c-0.55,0.05-1.04-0.34-1.1-0.89c-0.06-0.55,0.34-1.04,0.89-1.1c2.78-0.28,5.16,0.4,7.06,2.04c4.1,3.53,4.46,10.23,4.47,10.51
					c0.03,0.55-0.4,1.02-0.95,1.04C61.6,71.02,61.58,71.02,61.56,71.02z"/>
			</g>
			<g>
				<path class="st4" d="M66.88,17.2c-0.48,0-0.9-0.34-0.98-0.82c-1.03-5.71,4.99-9.48,5.25-9.64c0.47-0.29,1.08-0.14,1.37,0.33
					c0.29,0.47,0.14,1.09-0.33,1.38c-0.05,0.03-5.11,3.22-4.33,7.58c0.1,0.54-0.26,1.06-0.81,1.16C67,17.19,66.94,17.2,66.88,17.2z"
					/>
			</g>
			<g>
				<path class="st4" d="M66.17,14.71c-0.44,0-0.84-0.29-0.96-0.73c-0.59-2.08-2.26-2.06-2.44-2.04c-0.54,0.01-1.02-0.38-1.06-0.93
					c-0.04-0.55,0.37-1.02,0.91-1.06c1.19-0.09,3.66,0.51,4.51,3.49c0.15,0.53-0.16,1.09-0.69,1.24
					C66.36,14.7,66.26,14.71,66.17,14.71z"/>
			</g>
			<path class="st4" d="M77.2,32.84c0-9.52,4.29-18.17,11.26-24.57l-17.7,3.8C55.15,15.41,45.2,30.79,48.56,46.41l1.38,6.44
				c3.23-0.8,6.75-0.43,9.88,1.31c5.88,3.27,8.38,10.26,6.22,16.4c3.54-0.63,5.95-3.96,5.42-7.53l-1.38-9.29l1.95-2.03
				c3.01-3.13,4.78-7.26,4.97-11.6l0.26-5.82C77.22,33.8,77.2,33.32,77.2,32.84z"/>
			<circle class="st4" cx="94.35" cy="13.61" r="12.91"/>
			<circle class="st4" cx="80.55" cy="24.49" r="13.7"/>
		</g>
		<g>
			<path class="st6" d="M135.14,217.05c5.35,0.17,10.16-2.15,13.4-5.87c0.68-0.78,1.67-1.23,2.7-1.23h0.07
				c2.1,0,3.79,1.69,3.79,3.78v22.04h55.82c8.68,0,15.72-7.04,15.72-15.72v-55.82H155.1v22.04c0,2.09-1.69,3.78-3.78,3.78l0,0
				c-1.1,0-2.13-0.49-2.86-1.32c-3.12-3.54-7.69-5.79-12.78-5.79c-9.7,0-17.5,8.09-17.04,17.89
				C119.05,209.61,126.35,216.78,135.14,217.05z"/>
			<path class="st4" d="M207.92,183.96c0.16-5.33-2.12-10.11-5.81-13.35c-0.82-0.72-1.29-1.74-1.29-2.83v0
				c0-2.09,1.69-3.78,3.78-3.78h22.04v-55.82c0-8.68-7.04-15.72-15.72-15.72H155.1v71.54h22.04c2.09,0,3.78,1.69,3.78,3.78l0,0
				c0,1.1-0.49,2.13-1.32,2.86c-3.54,3.12-5.79,7.69-5.79,12.78c0,9.7,8.09,17.5,17.89,17.04
				C200.48,200.04,207.65,192.74,207.92,183.96z"/>
			<g>
				<path class="st5" d="M175.06,111.17c-5.35-0.17-10.16,2.15-13.4,5.87c-0.68,0.78-1.67,1.23-2.7,1.23h-0.07
					c-2.1,0-3.79-1.69-3.79-3.78V92.45H99.28c-8.68,0-15.72,7.04-15.72,15.72v55.82h23.32c1.46-0.53,2.5-1.91,2.5-3.54v0
					c0-1.09-0.47-2.11-1.29-2.83c-3.69-3.23-5.98-8.02-5.81-13.35c0.27-8.79,7.44-16.08,16.22-16.5c9.8-0.47,17.89,7.34,17.89,17.04
					c0,5.04-2.19,9.55-5.66,12.67c-0.72,0.65-1.28,1.49-1.41,2.44c-0.25,1.86,0.86,3.49,2.47,4.07h23.32v-21.85
					c0-1.65,0.97-3.21,2.53-3.75c1.54-0.53,3.11-0.03,4.11,1.11c3.12,3.54,7.69,5.79,12.78,5.79c9.7,0,17.5-8.09,17.04-17.89
					C191.14,118.61,183.85,111.45,175.06,111.17z"/>
				<path class="st4" d="M155.1,164.99h-23.32c-0.12,0-0.23-0.02-0.34-0.06c-2.14-0.77-3.43-2.89-3.12-5.15
					c0.15-1.12,0.75-2.17,1.73-3.05c3.39-3.04,5.33-7.39,5.33-11.93c0-4.43-1.77-8.56-4.98-11.62c-3.21-3.06-7.42-4.62-11.86-4.42
					c-8.3,0.4-15.01,7.22-15.26,15.53c-0.15,4.81,1.85,9.39,5.47,12.56c1.03,0.91,1.63,2.21,1.63,3.58c0,2-1.27,3.81-3.16,4.49
					c-0.11,0.04-0.22,0.06-0.34,0.06H83.56c-0.55,0-1-0.45-1-1v-55.82c0-9.22,7.5-16.72,16.72-16.72h55.82c0.55,0,1,0.45,1,1v22.04
					c0,1.53,1.25,2.78,2.79,2.78c0.82,0,1.53-0.32,2.02-0.89c3.58-4.11,8.75-6.34,14.18-6.21l0,0c9.35,0.29,17.02,7.83,17.47,17.17
					c0.24,5-1.53,9.73-4.97,13.34c-3.44,3.61-8.08,5.6-13.07,5.6c-5.17,0-10.1-2.23-13.53-6.13c-0.78-0.89-1.94-1.2-3.03-0.82
					c-1.1,0.38-1.86,1.54-1.86,2.81v21.85C156.1,164.55,155.65,164.99,155.1,164.99z M131.97,162.99h22.13v-20.85
					c0-2.14,1.29-4.03,3.21-4.7c1.84-0.64,3.88-0.1,5.19,1.39c3.05,3.46,7.44,5.45,12.03,5.45c4.43,0,8.56-1.77,11.62-4.98
					c3.06-3.21,4.63-7.42,4.42-11.86c-0.39-8.3-7.22-15.01-15.53-15.26c-4.83-0.18-9.43,1.86-12.61,5.52
					c-0.87,1-2.13,1.58-3.46,1.58c-2.71,0-4.86-2.14-4.86-4.78V93.45H99.27c-8.12,0-14.72,6.6-14.72,14.72v54.82h22.13
					c1.02-0.44,1.69-1.44,1.69-2.54c0-0.8-0.35-1.55-0.95-2.08c-4.08-3.57-6.32-8.72-6.15-14.13c0.29-9.35,7.83-17.02,17.17-17.47
					c4.99-0.23,9.73,1.53,13.34,4.97c3.61,3.44,5.6,8.08,5.6,13.07c0,5.1-2.18,9.99-5.99,13.41c-0.44,0.39-0.98,1.03-1.09,1.84
					C130.13,161.31,130.81,162.5,131.97,162.99z"/>
			</g>
			<path class="st4" d="M102.28,144.27c-0.17,5.35,2.15,10.16,5.87,13.4c0.78,0.68,1.23,1.67,1.23,2.7v0.07
				c0,2.1-1.69,3.79-3.78,3.79H83.56v55.82c0,8.68,7.04,15.72,15.72,15.72h55.82v-71.54h-22.04c-2.09,0-3.78-1.69-3.78-3.78l0,0
				c0-1.1,0.49-2.13,1.32-2.86c3.54-3.12,5.79-7.69,5.79-12.78c0-9.7-8.09-17.5-17.89-17.04
				C109.72,128.19,102.55,135.48,102.28,144.27z"/>
		</g>
		<g>
			<g>
				<path class="st5" d="M233.15,124.23l5.1-2.74c1.83-0.98,2.92-2.6,2.92-4.32v-5.57c0-2.05-1.55-3.92-3.97-4.78l-6.71-2.39
					c-1.93-0.69-4.16-0.64-6.04,0.12l-10.41,4.23v7.32c0,1.86,1.28,3.59,3.35,4.53l8.37,3.82
					C228.08,125.49,230.96,125.41,233.15,124.23z"/>
				<path class="st4" d="M229.24,126.17c-1.34,0-2.69-0.27-3.88-0.82l-8.37-3.82c-2.43-1.11-3.94-3.19-3.94-5.44v-7.32
					c0-0.41,0.25-0.77,0.62-0.93l10.41-4.23c2.12-0.86,4.58-0.91,6.75-0.14l6.71,2.39c2.81,1,4.63,3.25,4.63,5.72v5.57
					c0,2.1-1.29,4.04-3.45,5.2l-5.1,2.74l0,0C232.32,125.81,230.78,126.17,229.24,126.17z M233.15,124.23L233.15,124.23
					L233.15,124.23z M215.05,109.44v6.65c0,1.46,1.06,2.84,2.77,3.62l8.37,3.82c2.02,0.92,4.57,0.85,6.49-0.18l5.1-2.74
					c1.5-0.81,2.4-2.09,2.4-3.44v-5.57c0-1.62-1.3-3.13-3.3-3.84l-6.71-2.39c-1.69-0.6-3.68-0.56-5.33,0.11L215.05,109.44z"/>
			</g>
			<g>
				<path class="st5" d="M227.87,129.73l-0.1,9.61l8.34-6.15c3.22-2.38,5.22-5.57,5.64-8.99l0,0c0.37-3.05-2.02-5.89-5.78-6.87
					l-32.02-8.74l-0.48,6.33c-0.25,3.27,2.02,6.36,5.79,7.87L227.87,129.73z"/>
				<path class="st4" d="M227.77,140.34c-0.16,0-0.31-0.04-0.46-0.11c-0.34-0.17-0.55-0.52-0.54-0.9l0.09-8.91l-17.96-6.69
					c-4.2-1.69-6.72-5.17-6.43-8.88l0.48-6.33c0.02-0.3,0.18-0.57,0.42-0.74c0.24-0.17,0.55-0.22,0.84-0.15l32.02,8.74
					c4.26,1.11,6.94,4.38,6.51,7.95c-0.45,3.7-2.59,7.13-6.04,9.67l-8.34,6.15C228.19,140.27,227.98,140.34,227.77,140.34z
					 M204.85,109.88l-0.39,5.12c-0.22,2.83,1.81,5.52,5.16,6.87l18.6,6.93c0.4,0.15,0.65,0.53,0.65,0.95l-0.08,7.6l6.72-4.96
					c3-2.21,4.86-5.16,5.24-8.3c0.31-2.55-1.76-4.92-5.04-5.78L204.85,109.88z"/>
			</g>
			<g>
				<path class="st5" d="M227.74,142.37l-0.1,9.61l8.34-6.15c3.22-2.38,5.22-5.57,5.64-8.99l0,0c0.37-3.05-2.02-5.89-5.78-6.87
					l-29.3-7.9l-0.48,6.33c-0.25,3.27,2.02,6.36,5.79,7.87L227.74,142.37z"/>
				<path class="st4" d="M227.65,152.98c-0.16,0-0.31-0.04-0.46-0.11c-0.34-0.17-0.55-0.52-0.54-0.9l0.09-8.92l-15.25-5.85
					c-4.19-1.68-6.71-5.17-6.43-8.88l0.48-6.33c0.02-0.3,0.18-0.57,0.42-0.74c0.24-0.17,0.55-0.23,0.84-0.15l29.3,7.9
					c4.26,1.11,6.94,4.38,6.51,7.95c-0.45,3.7-2.59,7.13-6.04,9.67l-8.34,6.15C228.06,152.92,227.86,152.98,227.65,152.98z
					 M207.45,123.36l-0.39,5.12c-0.22,2.83,1.81,5.52,5.16,6.87l15.88,6.09c0.39,0.15,0.65,0.53,0.64,0.94l-0.08,7.6l6.72-4.96
					c3-2.21,4.86-5.16,5.24-8.3c0.31-2.55-1.76-4.93-5.04-5.78L207.45,123.36z"/>
			</g>
			<g>
				<path class="st5" d="M227.62,154.38l-0.1,9.61l8.34-6.15c3.22-2.38,5.22-5.57,5.64-8.99v0c0.37-3.05-2.02-5.89-5.78-6.87
					l-25.43-6.63l-0.48,6.33c-0.25,3.27,2.02,6.36,5.79,7.87L227.62,154.38z"/>
				<path class="st4" d="M227.53,164.99c-0.16,0-0.31-0.04-0.46-0.11c-0.34-0.17-0.55-0.52-0.54-0.9l0.09-8.93l-11.39-4.57
					c-4.18-1.68-6.69-5.16-6.41-8.87l0.48-6.33c0.02-0.3,0.17-0.57,0.42-0.74c0.24-0.17,0.55-0.23,0.83-0.15l25.43,6.63
					c4.27,1.11,6.95,4.38,6.52,7.96c-0.45,3.7-2.59,7.13-6.04,9.67l-8.34,6.15C227.95,164.93,227.74,164.99,227.53,164.99z
					 M211.2,136.63l-0.39,5.13c-0.22,2.83,1.81,5.52,5.16,6.87l12.02,4.83c0.38,0.15,0.63,0.53,0.63,0.94l-0.08,7.6l6.72-4.96
					c3-2.21,4.86-5.16,5.24-8.3c0.31-2.55-1.76-4.93-5.04-5.78L211.2,136.63z"/>
			</g>
		</g>
		<g>
			<path class="st5" d="M79.12,204.78l-7.21,24.95c0,0-23.84-5.9-27.53-22.19c-3.69-16.29-4.37-42,9.01-46.85s35.98-0.13,35.98-0.13
				s3.09,5.13-3.78,8.87c-6.87,3.74-9.46,6.51-9.46,6.51l19.14,0.77c0,0,1.7,3.26-0.03,8.39C93.51,190.23,93.18,198.68,79.12,204.78
				z"/>
			<g>
				<path class="st4" d="M75.43,230.66c-0.06,0-0.12,0-0.18-0.02c-0.29-0.05-7.17-1.31-14.56-4.71c-9.94-4.58-15.92-10.87-17.3-18.2
					c-6.63-35.09,3.16-45.11,9.58-47.95c13.6-6.03,35.7-0.43,36.64-0.18c0.31,0.08,0.56,0.3,0.68,0.59
					c0.08,0.21,2.05,5.12,0.21,8.66c-0.84,1.61-2.3,2.66-4.35,3.13c-2.84,0.64-6.71,0.67-10.45,0.69
					c-5.32,0.03-11.35,0.07-13.07,2.07c-0.36,0.42-0.99,0.47-1.41,0.11c-0.42-0.36-0.47-0.99-0.11-1.41
					c2.32-2.7,8.27-2.73,14.57-2.76c3.64-0.02,7.39-0.04,10.02-0.64c1.46-0.33,2.45-1.02,3.01-2.1c1.05-2.01,0.38-5.04-0.12-6.51
					c-3.38-0.8-22.95-5.06-34.83,0.2c-14.22,6.3-10.63,34.1-8.43,45.75c3.07,16.24,29.98,21.27,30.25,21.32
					c0.54,0.1,0.9,0.62,0.81,1.16C76.33,230.32,75.91,230.66,75.43,230.66z"/>
			</g>
			<g>
				<path class="st4" d="M94.09,184.54c-0.34,0-0.68-0.18-0.87-0.5c-0.28-0.48-0.12-1.09,0.36-1.37c3.52-2.05,2.03-6.39,1.36-7.93
					l-42.83,1.08c-0.55,0-1.01-0.42-1.02-0.97c-0.01-0.55,0.42-1.01,0.97-1.03l43.48-1.1c0.41,0.01,0.73,0.2,0.91,0.53
					c1.41,2.66,2.85,8.4-1.86,11.14C94.44,184.5,94.26,184.54,94.09,184.54z"/>
			</g>
			<g>
				<path class="st4" d="M54.63,200.58c-0.49,0-0.92-0.36-0.99-0.86c-0.08-0.55,0.3-1.05,0.85-1.13c0.32-0.04,31.92-4.5,36.61-5.92
					c3.1-0.94,3.9-5.5,4.1-7.63l-43.13,3.2c-0.54,0.05-1.03-0.37-1.07-0.92c-0.04-0.55,0.37-1.03,0.92-1.07l44.27-3.28
					c0.28-0.02,0.55,0.08,0.76,0.27c0.2,0.19,0.32,0.46,0.32,0.74c0,0.37-0.14,8.97-5.6,10.62c-4.83,1.46-35.6,5.8-36.9,5.99
					C54.73,200.57,54.68,200.58,54.63,200.58z"/>
			</g>
			<g>
				<path class="st4" d="M58.56,210.8c-0.52,0-0.95-0.4-1-0.92c-0.04-0.55,0.36-1.03,0.92-1.08c0.08-0.01,7.87-0.66,15.66-2.92
					c6.96-2.02,15.36-5.75,15.84-12.06c0.04-0.55,0.52-0.96,1.07-0.92c0.55,0.04,0.96,0.52,0.92,1.07
					c-1.05,14.03-32.01,16.72-33.33,16.82C58.61,210.8,58.58,210.8,58.56,210.8z"/>
			</g>
		</g>
	</g>
</g>
</svg>
