<?xml version="1.0" encoding="utf-8"?>
<!-- Generator: Adobe Illustrator 25.0.0, SVG Export Plug-In . SVG Version: 6.00 Build 0)  -->
<svg version="1.1" xmlns="http://www.w3.org/2000/svg" xmlns:xlink="http://www.w3.org/1999/xlink" x="0px" y="0px"
	 viewBox="0 0 300.06 227.68" style="enable-background:new 0 0 300.06 227.68;" xml:space="preserve">
<style type="text/css">
	.st0{display:none;}
	.st1{display:inline;}
	.st2{clip-path:url(#SVGID_2_);fill:#FFFFFF;}
	.st3{fill:#E4F1F7;}
	.st4{fill:#080717;}
	.st5{fill:#FFFFFF;}
	.st6{fill:#FFB000;}
	.st7{fill:none;stroke:#000000;stroke-width:2;stroke-linecap:round;stroke-linejoin:round;stroke-miterlimit:10;}
	.st8{fill:none;stroke:#080717;stroke-width:2;stroke-linecap:round;stroke-linejoin:round;stroke-miterlimit:10;}
	.st9{fill:#070A17;}
</style>
<g id="Layer_2" class="st0">
	<g class="st1">
		<defs>
			<rect id="SVGID_1_" x="-5076.8" y="-435.87" width="6602.94" height="1370.62"/>
		</defs>
		<use xlink:href="#SVGID_1_"  style="overflow:visible;fill:#FFFFFF;"/>
		<clipPath id="SVGID_2_">
			<use xlink:href="#SVGID_1_"  style="overflow:visible;"/>
		</clipPath>
		<rect x="-5076.8" y="-435.87" class="st2" width="6602.94" height="1370.62"/>
	</g>
	<g class="st1">
		<rect x="-2.71" y="-5.9" class="st3" width="302.93" height="234.11"/>
	</g>
</g>
<g id="_x3C_Layer_x3E_">
	<g>
		<g>
			<g>
				<path class="st5" d="M290.24,123.83H131.53c-4.87,0-8.82-3.95-8.82-8.82V9.82c0-4.87,3.95-8.82,8.82-8.82h158.72
					c4.87,0,8.82,3.95,8.82,8.82v105.2C299.06,119.88,295.11,123.83,290.24,123.83z"/>
				<path class="st4" d="M290.24,124.83H131.53c-5.41,0-9.82-4.4-9.82-9.82V9.82c0-5.41,4.4-9.82,9.82-9.82h158.72
					c5.41,0,9.82,4.4,9.82,9.82v105.2C300.06,120.43,295.66,124.83,290.24,124.83z M131.53,2c-4.31,0-7.82,3.51-7.82,7.82v105.2
					c0,4.31,3.51,7.82,7.82,7.82h158.72c4.31,0,7.82-3.51,7.82-7.82V9.82c0-4.31-3.51-7.82-7.82-7.82H131.53z"/>
			</g>
			<g>
				<path class="st4" d="M132.79,13.41c-2.12,0-3.85-1.73-3.85-3.85s1.73-3.85,3.85-3.85c2.12,0,3.85,1.73,3.85,3.85
					S134.92,13.41,132.79,13.41z M132.79,7.7c-1.02,0-1.85,0.83-1.85,1.85s0.83,1.85,1.85,1.85c1.02,0,1.85-0.83,1.85-1.85
					S133.81,7.7,132.79,7.7z"/>
			</g>
			<g>
				<path class="st4" d="M142.39,13.41c-2.12,0-3.85-1.73-3.85-3.85s1.73-3.85,3.85-3.85c2.12,0,3.85,1.73,3.85,3.85
					S144.51,13.41,142.39,13.41z M142.39,7.7c-1.02,0-1.85,0.83-1.85,1.85s0.83,1.85,1.85,1.85s1.85-0.83,1.85-1.85
					S143.41,7.7,142.39,7.7z"/>
			</g>
			<g>
				<path class="st4" d="M151.98,13.41c-2.12,0-3.85-1.73-3.85-3.85s1.73-3.85,3.85-3.85c2.12,0,3.85,1.73,3.85,3.85
					S154.11,13.41,151.98,13.41z M151.98,7.7c-1.02,0-1.85,0.83-1.85,1.85s0.83,1.85,1.85,1.85c1.02,0,1.85-0.83,1.85-1.85
					S153.01,7.7,151.98,7.7z"/>
			</g>
		</g>
		<g>
			<g>
				<path class="st5" d="M168.53,214.62H9.82c-4.87,0-8.82-3.95-8.82-8.82V100.6c0-4.87,3.95-8.82,8.82-8.82h158.72
					c4.87,0,8.82,3.95,8.82,8.82v105.2C177.35,210.67,173.4,214.62,168.53,214.62z"/>
				<path class="st4" d="M168.53,215.62H9.82c-5.41,0-9.82-4.4-9.82-9.82V100.6c0-5.41,4.4-9.82,9.82-9.82h158.72
					c5.41,0,9.82,4.4,9.82,9.82v105.2C178.35,211.21,173.95,215.62,168.53,215.62z M9.82,92.78C5.51,92.78,2,96.29,2,100.6v105.2
					c0,4.31,3.51,7.82,7.82,7.82h158.72c4.31,0,7.82-3.51,7.82-7.82V100.6c0-4.31-3.51-7.82-7.82-7.82H9.82z"/>
			</g>
			<g>
				<path class="st4" d="M11.08,104.19c-2.12,0-3.85-1.73-3.85-3.85c0-2.12,1.73-3.85,3.85-3.85c2.12,0,3.85,1.73,3.85,3.85
					C14.93,102.46,13.21,104.19,11.08,104.19z M11.08,98.49c-1.02,0-1.85,0.83-1.85,1.85s0.83,1.85,1.85,1.85s1.85-0.83,1.85-1.85
					S12.1,98.49,11.08,98.49z"/>
			</g>
			<g>
				<path class="st4" d="M20.68,104.19c-2.12,0-3.85-1.73-3.85-3.85c0-2.12,1.73-3.85,3.85-3.85c2.12,0,3.85,1.73,3.85,3.85
					C24.53,102.46,22.8,104.19,20.68,104.19z M20.68,98.49c-1.02,0-1.85,0.83-1.85,1.85s0.83,1.85,1.85,1.85s1.85-0.83,1.85-1.85
					S21.7,98.49,20.68,98.49z"/>
			</g>
			<g>
				<path class="st4" d="M30.27,104.19c-2.12,0-3.85-1.73-3.85-3.85c0-2.12,1.73-3.85,3.85-3.85c2.12,0,3.85,1.73,3.85,3.85
					C34.13,102.46,32.4,104.19,30.27,104.19z M30.27,98.49c-1.02,0-1.85,0.83-1.85,1.85s0.83,1.85,1.85,1.85s1.85-0.83,1.85-1.85
					S31.3,98.49,30.27,98.49z"/>
			</g>
		</g>
		<path class="st4" d="M74.86,68.28l-59.7,81.53c-13.71,18.72-0.34,45.07,22.86,45.07l0,0l33.92,1v19.95h89.79l-3.14-33.88
			c-1.04-11.27-10.61-19.83-21.93-19.62l-85.67,1.62l43.9-62.85L74.86,68.28z"/>
		<g>
			<polygon class="st6" points="185.89,103.62 185.89,31.73 128.8,31.73 71.71,31.73 71.71,103.62 128.8,103.62 			"/>
			<g>
				<path class="st4" d="M128.8,72.43c-0.2,0-0.4-0.06-0.57-0.18l-57.09-39.7c-0.45-0.32-0.57-0.94-0.25-1.39
					c0.32-0.45,0.94-0.56,1.39-0.25l56.52,39.3l56.52-39.3c0.45-0.31,1.08-0.2,1.39,0.25c0.32,0.45,0.2,1.08-0.25,1.39l-57.09,39.7
					C129.2,72.38,129,72.43,128.8,72.43z"/>
			</g>
			<polygon class="st4" points="185.89,42.96 185.89,31.73 128.8,71.43 			"/>
		</g>
		<g>
			<g>
				<path class="st5" d="M59.25,75.6L58.61,62.1l14.71-15.67c1.24-1.32,3.34-1.27,4.52,0.09l0,0c2.39,2.77,2.55,6.82,0.38,9.77
					L66.66,72.01L59.25,75.6z"/>
				<path class="st4" d="M59.25,76.6c-0.18,0-0.35-0.05-0.51-0.14c-0.29-0.17-0.47-0.48-0.49-0.81l-0.63-13.51
					c-0.01-0.27,0.08-0.53,0.27-0.73l14.71-15.67c0.78-0.83,1.89-1.33,3.03-1.27c1.14,0.02,2.23,0.53,2.98,1.4
					c2.72,3.14,2.89,7.67,0.43,11.01L67.46,72.6c-0.1,0.13-0.22,0.24-0.37,0.31l-7.41,3.6C59.54,76.57,59.39,76.6,59.25,76.6z
					 M59.63,62.47l0.54,11.57L66,71.21L77.42,55.7c1.9-2.59,1.77-6.09-0.33-8.52c-0.38-0.44-0.92-0.69-1.5-0.71
					c-0.59-0.01-1.13,0.22-1.53,0.64L59.63,62.47z"/>
			</g>
			<g>
				<path class="st5" d="M90.68,65.21l-0.02-0.37c-0.07-1.44-1.29-2.56-2.74-2.49l-29.24,1.37l0.5,10.62l24.22-1.14
					C87.62,73,90.88,69.42,90.68,65.21z"/>
				<path class="st4" d="M59.19,75.33c-0.25,0-0.49-0.09-0.67-0.26c-0.2-0.18-0.31-0.43-0.33-0.69l-0.5-10.62
					c-0.03-0.55,0.4-1.02,0.95-1.05l29.24-1.37c2.01-0.09,3.69,1.45,3.78,3.45l0.02,0.37l0,0c0.22,4.76-3.46,8.81-8.22,9.03
					l-24.22,1.14C59.22,75.33,59.2,75.33,59.19,75.33z M59.73,64.67l0.4,8.62l23.22-1.09c3.65-0.17,6.49-3.29,6.32-6.94l-0.02-0.37
					c-0.04-0.89-0.8-1.57-1.69-1.54L59.73,64.67z"/>
			</g>
			<g>
				<path class="st5" d="M91.17,75.56l-0.02-0.37c-0.07-1.44-1.29-2.56-2.74-2.49l-29.24,1.37l0.5,10.62l24.22-1.14
					C88.11,83.35,91.36,79.78,91.17,75.56z"/>
				<path class="st4" d="M59.67,85.69c-0.53,0-0.97-0.42-1-0.95l-0.5-10.62c-0.01-0.26,0.08-0.52,0.26-0.72
					c0.18-0.2,0.43-0.31,0.69-0.33l29.24-1.37c0.96-0.05,1.89,0.29,2.61,0.94c0.71,0.65,1.13,1.54,1.18,2.51l0.02,0.37l0,0
					c0.22,4.76-3.46,8.81-8.22,9.03l-24.22,1.14C59.7,85.69,59.69,85.69,59.67,85.69z M60.22,75.02l0.4,8.62l23.22-1.09
					c3.65-0.17,6.49-3.29,6.32-6.94l-0.02-0.37c-0.02-0.43-0.21-0.83-0.53-1.12c-0.32-0.29-0.74-0.44-1.17-0.42L60.22,75.02z"/>
			</g>
			<g>
				<path class="st5" d="M85.15,86.22l-0.02-0.37c-0.07-1.44-1.29-2.56-2.74-2.49l-22.74,1.07l0.24,5.02
					c0.16,3.51,2.04,6.71,5.01,8.57l9.77,6.12l-0.2-9.76l3.4-0.16C82.1,94.01,85.35,90.44,85.15,86.22z"/>
				<path class="st4" d="M74.68,105.13c-0.18,0-0.37-0.05-0.53-0.15l-9.77-6.12c-3.25-2.04-5.3-5.54-5.48-9.37l-0.24-5.02
					c-0.01-0.26,0.08-0.52,0.26-0.72c0.18-0.2,0.43-0.31,0.69-0.33l22.74-1.07c0.97-0.04,1.89,0.29,2.61,0.94
					c0.71,0.65,1.13,1.54,1.18,2.51l0.02,0.37c0.11,2.3-0.69,4.51-2.24,6.22c-1.55,1.71-3.68,2.71-5.98,2.81l-2.43,0.11l0.18,8.79
					c0.01,0.37-0.19,0.71-0.51,0.89C75.02,105.09,74.85,105.13,74.68,105.13z M60.71,85.38l0.19,4.02c0.15,3.18,1.85,6.08,4.54,7.77
					l8.2,5.13l-0.16-7.91c-0.01-0.54,0.41-0.99,0.95-1.02l3.4-0.16c1.77-0.08,3.4-0.85,4.6-2.16c1.19-1.31,1.8-3.01,1.72-4.78v0
					l-0.02-0.37c-0.02-0.43-0.21-0.83-0.53-1.12c-0.32-0.29-0.74-0.45-1.17-0.42L60.71,85.38z"/>
			</g>
		</g>
		<g>
			<path class="st5" d="M41.01,179.91c-0.19,0-0.38-0.05-0.55-0.17c-0.46-0.31-0.58-0.93-0.28-1.39l9.98-14.96
				c0.31-0.46,0.93-0.58,1.39-0.28c0.46,0.31,0.58,0.93,0.28,1.39l-9.98,14.96C41.65,179.76,41.33,179.91,41.01,179.91z"/>
		</g>
		<g>
			<path class="st4" d="M121.84,151.63l-9.42,2.29c-10.83,2.63-21.84-4.08-24.47-14.91l-0.91-3.73
				c-3.29-13.56,5.11-27.35,18.68-30.64l1.94,3.48c8.5-2.06,17.15,3.2,19.21,11.71l4.09,16.86
				C132.56,143.3,128.46,150.02,121.84,151.63z"/>
			<g>
				<path class="st5" d="M93.59,165.49l6.95-0.31l7.79-34.63l24.82,5.32l-5.2,28.1l7.47-0.33c0.29,0.85,0.45,1.74,0.45,2.64
					c0,7.11-9.48,12.88-21.16,12.88c-11.69,0-21.16-5.77-21.16-12.88C93.54,166.03,93.56,165.76,93.59,165.49z"/>
				<path class="st4" d="M114.7,180.18c-12.22,0-22.16-6.23-22.16-13.88c0-0.3,0.02-0.61,0.05-0.9c0.05-0.49,0.46-0.88,0.95-0.9
					l6.19-0.27l7.62-33.88c0.12-0.53,0.65-0.88,1.19-0.76l24.82,5.32c0.53,0.11,0.87,0.63,0.77,1.16l-4.97,26.86l6.22-0.27
					c0.44-0.03,0.85,0.26,0.99,0.67c0.33,0.97,0.5,1.97,0.5,2.97C136.87,173.95,126.92,180.18,114.7,180.18z M94.54,166.45
					c0.14,6.48,9.13,11.73,20.16,11.73c11.12,0,20.16-5.33,20.16-11.88c0-0.54-0.06-1.08-0.19-1.61l-6.69,0.29
					c-0.29,0.03-0.6-0.11-0.8-0.34c-0.2-0.23-0.28-0.54-0.23-0.84l5.02-27.14l-22.9-4.91l-7.57,33.66c-0.1,0.44-0.48,0.76-0.93,0.78
					L94.54,166.45z"/>
			</g>
			
				<ellipse transform="matrix(0.5303 -0.8478 0.8478 0.5303 -47.6641 140.6132)" class="st4" cx="103.07" cy="113.32" rx="9.59" ry="9.59"/>
			<path class="st4" d="M103.66,108.18c-9.77,3.73-15.57,14.05-13.43,24.48c2.64,0.96,5.62,1.17,8.6,0.45
				c7.75-1.88,12.58-9.38,10.79-16.75C108.77,112.85,106.56,110,103.66,108.18z"/>
			<path class="st4" d="M91.69,122.71c-3.22,9.95,1.19,20.94,10.65,25.81c2.4-1.46,4.44-3.64,5.74-6.42
				c3.39-7.22,0.58-15.68-6.29-18.91C98.53,121.65,94.93,121.58,91.69,122.71z"/>
			
				<ellipse transform="matrix(0.2466 -0.9691 0.9691 0.2466 -27.6417 191.6286)" class="st4" cx="109.43" cy="113.59" rx="9.59" ry="9.59"/>
			
				<ellipse transform="matrix(0.5245 -0.8514 0.8514 0.5245 -37.7953 155.2965)" class="st4" cx="120.14" cy="111.49" rx="9.86" ry="9.86"/>
			<path class="st4" d="M118.9,107.75c1.28,5.29-1.96,10.62-7.26,11.91c-5.29,1.28-10.62-1.96-11.91-7.26
				c-1.28-5.29,1.96-10.62,7.26-11.91C112.29,99.21,117.62,102.46,118.9,107.75z"/>
			<g>
				<path class="st4" d="M85.4,123.48c-0.33,0-0.66-0.17-0.85-0.47c-0.29-0.47-0.15-1.08,0.32-1.38c0.15-0.09,3.62-2.22,6.8-0.3
					c0.47,0.29,0.62,0.9,0.34,1.37c-0.29,0.47-0.9,0.62-1.37,0.34c-2.13-1.29-4.68,0.27-4.7,0.28
					C85.77,123.43,85.58,123.48,85.4,123.48z"/>
			</g>
			<g>
				<path class="st4" d="M90.44,122.83c-3.09,0-5.15-2.63-5.24-2.76c-0.34-0.44-0.25-1.07,0.18-1.4c0.44-0.33,1.06-0.25,1.4,0.18
					l0,0c0.02,0.02,1.88,2.37,4.31,1.92c0.54-0.1,1.07,0.25,1.17,0.8c0.1,0.54-0.26,1.07-0.8,1.17
					C91.1,122.8,90.76,122.83,90.44,122.83z"/>
			</g>
			<g>
				<path class="st5" d="M133.81,119.95c-7.5-11.9-21.73-16.41-31.78-10.07c-8.49,5.36-11.28,16.75-7.41,27.33
					c-0.23,0.06-0.47,0.11-0.7,0.19c-3.54,1.21-5.68,5-4.88,8.65c0.9,4.11,4.99,6.66,9.06,5.67c1.79-0.43,3.26-1.49,4.26-2.87
					c7.83,7.26,18.7,9.24,26.84,4.11C139.25,146.63,141.31,131.85,133.81,119.95z"/>
				<path class="st4" d="M119.03,156.86c-5.67,0-11.57-2.24-16.56-6.56c-1.12,1.18-2.55,2.02-4.13,2.41
					c-2.23,0.54-4.54,0.17-6.49-1.05c-1.95-1.22-3.29-3.13-3.78-5.38c-0.88-4.04,1.42-8.26,5.28-9.72
					c-3.59-10.97-0.31-22.18,8.16-27.52c10.5-6.62,25.37-1.96,33.16,10.38l0,0c3.75,5.95,5.33,12.8,4.42,19.27
					c-0.91,6.53-4.23,11.91-9.34,15.13C126.49,155.86,122.81,156.86,119.03,156.86z M102.36,147.86c0.25,0,0.49,0.09,0.68,0.27
					c7.74,7.18,18.04,8.78,25.63,4c4.61-2.9,7.6-7.78,8.43-13.71c0.84-6-0.63-12.37-4.13-17.92c-7.2-11.41-20.83-15.79-30.4-9.76
					c-7.93,5-10.81,15.75-7,26.14c0.1,0.27,0.08,0.57-0.06,0.82c-0.14,0.25-0.37,0.43-0.65,0.5c-0.2,0.05-0.41,0.1-0.61,0.17
					c-3.06,1.04-4.92,4.34-4.23,7.5c0.38,1.72,1.4,3.18,2.89,4.11c1.49,0.93,3.25,1.21,4.96,0.8c1.47-0.36,2.79-1.24,3.69-2.49
					c0.17-0.23,0.43-0.38,0.71-0.41C102.3,147.86,102.33,147.86,102.36,147.86z"/>
			</g>
			<path class="st4" d="M113.48,124.17c0.7,0.71,1.64,0.93,2.09,0.48c0.45-0.45,0.25-1.39-0.45-2.1c-0.7-0.71-1.64-0.93-2.09-0.48
				C112.58,122.52,112.78,123.45,113.48,124.17z"/>
			<path class="st4" d="M123.7,118.03c0.7,0.71,1.64,0.93,2.09,0.48c0.45-0.45,0.25-1.39-0.45-2.1c-0.7-0.71-1.64-0.93-2.09-0.48
				C122.8,116.38,123,117.32,123.7,118.03z"/>
			<g>
				<path class="st4" d="M108.82,124.99c-0.06,0-0.11,0-0.17-0.01c-0.54-0.09-0.91-0.61-0.82-1.15c0.55-3.21,3.78-4.58,3.91-4.63
					c0.51-0.21,1.1,0.03,1.31,0.54c0.21,0.51-0.03,1.09-0.54,1.31l0,0c-0.02,0.01-2.35,1.02-2.71,3.12
					C109.72,124.65,109.3,124.99,108.82,124.99z"/>
			</g>
			<g>
				<path class="st4" d="M119.82,134.02c-0.47,0-0.88-0.33-0.98-0.8c-0.11-0.54,0.24-1.07,0.78-1.18c1.76-0.35,6.64-1.66,8.04-3.42
					c0.34-0.43,0.97-0.5,1.41-0.16c0.43,0.34,0.5,0.97,0.16,1.4c-2.1,2.64-8.49,3.99-9.21,4.13
					C119.95,134.02,119.89,134.02,119.82,134.02z"/>
			</g>
			<g>
				<path class="st4" d="M125.24,124.05c-0.23,0-0.45-0.08-0.64-0.23l-7.04-5.87c-0.37-0.3-0.47-0.82-0.24-1.24
					c1.23-2.28,4.79-5.96,9.47-3.58c0.49,0.25,0.69,0.85,0.44,1.34c-0.25,0.49-0.85,0.69-1.34,0.44c-3.18-1.62-5.45,0.81-6.37,2.07
					l6.36,5.3c0.42,0.35,0.48,0.98,0.13,1.41C125.81,123.93,125.52,124.05,125.24,124.05z"/>
			</g>
			<path class="st4" d="M96.26,127.26l7.85,12.52c0.25,0.39,0.29,0.88,0.12,1.31l0,0c-0.33,0.85-1.35,1.19-2.12,0.71l-7.53-4.59
				L96.26,127.26z"/>
			<g>
				<path class="st4" d="M99.11,144.59c-0.37,0-0.73-0.21-0.9-0.56c-0.02-0.04-1.12-2.21-3.16-2.44c-0.55-0.06-0.94-0.56-0.88-1.11
					c0.06-0.55,0.56-0.94,1.11-0.88c3.15,0.36,4.67,3.42,4.73,3.55c0.24,0.5,0.03,1.09-0.47,1.33
					C99.41,144.56,99.26,144.59,99.11,144.59z"/>
			</g>
			<path class="st4" d="M88.81,118.41c-2.43,5.08-3.19,10.99-1.77,16.86l0.68,2.81c1.04,0.09,2.1,0.02,3.17-0.24
				c5.29-1.28,8.54-6.62,7.26-11.91C97.07,121.5,93.16,118.51,88.81,118.41z"/>
		</g>
		<g>
			<g>
				<path class="st5" d="M195.59,72.88l-6.38-19.01c-0.53-1.58-2.29-2.38-3.83-1.73l0,0c-2.4,1.01-3.9,3.42-3.75,6.02l0.41,7.11
					L195.59,72.88z"/>
				<path class="st4" d="M195.59,73.88c-0.17,0-0.34-0.04-0.49-0.13l-13.55-7.62c-0.3-0.17-0.49-0.47-0.51-0.82l-0.41-7.11
					c-0.17-3.01,1.58-5.82,4.36-6.99c0.99-0.42,2.11-0.4,3.09,0.04c0.98,0.44,1.73,1.28,2.07,2.29l6.38,19.01
					c0.13,0.39,0.01,0.83-0.31,1.09C196.04,73.8,195.82,73.88,195.59,73.88z M183.01,64.66l10.81,6.08l-5.55-16.55
					c-0.17-0.5-0.52-0.89-1-1.11c-0.48-0.22-1.01-0.22-1.49-0.02c-2,0.84-3.26,2.87-3.14,5.04L183.01,64.66z"/>
			</g>
			<g>
				<g>
					<path class="st5" d="M187.73,64.85l-21.92-10.28c-1.21-0.57-2.64,0.09-3.01,1.37l-0.36,1.26c-0.68,2.39,0.15,4.95,2.1,6.5
						l5.26,4.17l0.16,0.79l-7.73-2.47c-1.69-0.54-3.51,0.4-4.02,2.1c-0.77,2.57,0.43,5.27,2.75,6.47c-1.52-0.27-3.05,0.61-3.53,2.12
						c-0.83,2.6,0.38,5.35,2.72,6.56c-1.52-0.27-3.05,0.61-3.53,2.12c-0.93,2.9,0.67,6,3.58,6.93l15.67,5.01l0.56,2.71
						c0.66,3.22,2.71,5.98,5.6,7.55l3.18,0.12c5.36,0.2,10.09-3.46,11.24-8.7l3.09-14.12l-0.04-2.07
						C199.35,75.19,194.79,68.16,187.73,64.85z"/>
					<path class="st4" d="M185.64,108.88c-0.15,0-0.31,0-0.46-0.01l-3.18-0.12c-0.15-0.01-0.3-0.05-0.44-0.12
						c-3.16-1.71-5.38-4.71-6.1-8.23l-0.44-2.13l-15.12-4.83c-1.66-0.53-3.01-1.67-3.81-3.22c-0.8-1.55-0.95-3.31-0.42-4.97
						c0.35-1.09,1.13-1.95,2.1-2.43c-1.46-1.67-2-4.02-1.29-6.25c0.35-1.09,1.13-1.95,2.1-2.43c-1.43-1.64-1.99-3.95-1.33-6.14
						c0.32-1.08,1.05-1.96,2.05-2.48c1.01-0.53,2.16-0.63,3.24-0.29l3.9,1.25l-2.52-1.99c-2.27-1.8-3.23-4.76-2.44-7.55l0.36-1.26
						c0.25-0.9,0.88-1.63,1.73-2.02c0.85-0.39,1.82-0.38,2.66,0.01l21.92,10.28c7.46,3.5,12.19,10.79,12.34,19.03l0.04,2.07
						c0,0.08-0.01,0.16-0.02,0.23l-3.09,14.12C196.21,104.95,191.29,108.88,185.64,108.88z M182.31,106.76l2.94,0.11
						c4.87,0.16,9.18-3.15,10.22-7.92l3.06-14L198.5,83c-0.14-7.47-4.43-14.08-11.19-17.25l-21.92-10.28
						c-0.32-0.15-0.67-0.15-0.98,0c-0.32,0.15-0.54,0.41-0.64,0.75l-0.36,1.26c-0.57,2.01,0.12,4.14,1.76,5.44l5.26,4.17
						c0.18,0.15,0.31,0.35,0.36,0.58l0.16,0.79c0.07,0.35-0.05,0.71-0.31,0.95c-0.26,0.24-0.63,0.32-0.97,0.21l-7.73-2.47
						c-0.57-0.18-1.17-0.13-1.7,0.15c-0.52,0.27-0.9,0.73-1.07,1.29c-0.62,2.07,0.33,4.3,2.25,5.29c0.44,0.23,0.65,0.74,0.49,1.21
						c-0.16,0.47-0.63,0.75-1.12,0.66c-1.05-0.18-2.08,0.43-2.4,1.44c-0.67,2.1,0.27,4.36,2.23,5.37c0.44,0.23,0.65,0.74,0.49,1.21
						c-0.16,0.47-0.64,0.75-1.12,0.66c-1.05-0.19-2.08,0.43-2.4,1.44c-0.37,1.15-0.26,2.37,0.29,3.44c0.55,1.07,1.49,1.86,2.64,2.23
						l15.67,5.01c0.34,0.11,0.6,0.4,0.68,0.75l0.56,2.71C178,102.86,179.78,105.31,182.31,106.76z"/>
				</g>
				<g>
					<path class="st4" d="M180.68,82.15c-0.1,0-0.2-0.01-0.3-0.05l-18.86-6.02c-0.53-0.17-0.82-0.73-0.65-1.26
						c0.17-0.53,0.73-0.82,1.26-0.65l18.86,6.02c0.53,0.17,0.82,0.73,0.65,1.26C181.49,81.88,181.1,82.15,180.68,82.15z"/>
				</g>
				<g>
					<path class="st4" d="M182.22,73.56c-0.1,0-0.2-0.01-0.3-0.05l-20.04-6.4c-0.53-0.17-0.82-0.73-0.65-1.26
						c0.17-0.53,0.73-0.82,1.26-0.65l20.04,6.4c0.53,0.17,0.82,0.73,0.65,1.26C183.04,73.29,182.65,73.56,182.22,73.56z"/>
				</g>
				<g>
					<path class="st4" d="M178.47,90.33c-0.1,0-0.2-0.01-0.3-0.05l-20.04-6.4c-0.53-0.17-0.82-0.73-0.65-1.26
						c0.17-0.53,0.73-0.82,1.26-0.65l20.04,6.4c0.53,0.17,0.82,0.73,0.65,1.26C179.28,90.06,178.89,90.33,178.47,90.33z"/>
				</g>
			</g>
		</g>
		<circle class="st4" cx="256.04" cy="45.91" r="17.47"/>
		<circle class="st4" cx="227.8" cy="42.01" r="28.86"/>
		<path class="st5" d="M234.42,82.94c-0.43,1.18-15.48-18.78-15.83-19.01l16.57-17.58c0,0,11.94,18.64,15.24,19.46
			C250.39,65.81,239.02,70.34,234.42,82.94z"/>
		<g>
			<path class="st4" d="M234.42,83.94c-0.31,0-0.62-0.15-0.82-0.42c-2.18-3.09-14.75-17.92-15.66-18.83
				c-0.19-0.16-0.31-0.39-0.34-0.65c-0.03-0.29,0.06-0.58,0.27-0.8l16.57-17.58c0.21-0.22,0.52-0.33,0.82-0.31
				c0.31,0.03,0.58,0.2,0.75,0.46c5.77,9,12.82,18.58,14.64,19.03c0.54,0.13,0.86,0.68,0.73,1.21c-0.13,0.54-0.68,0.86-1.21,0.73
				c-0.85-0.21-4.41-2.2-15.15-18.82l-15.05,15.97c3.09,3.43,13.7,16.18,15.28,18.43c0.32,0.45,0.21,1.07-0.24,1.39
				C234.82,83.88,234.62,83.94,234.42,83.94z"/>
		</g>
		<path class="st4" d="M235.1,56.99c0.32,0.34,0.15,0.92-0.28,1.48c-2.96,3.89-6.16,7.71-9.59,11.43c-0.39,0.42-0.78,0.86-1.22,1.24
			c-0.99-1.5-1.97-3-2.88-4.33c-0.27-0.43-0.54-0.84-0.81-1.21c0.1-0.06,0.21-0.13,0.31-0.19c0.48-0.3,0.87-0.36,1.17-0.3
			c0.25-0.16,0.51-0.31,0.77-0.49c1.19-0.81,2.38-1.64,3.56-2.46c2.45-1.69,4.89-3.37,7.33-5.07
			C234.08,56.68,234.81,56.7,235.1,56.99z"/>
		<g>
			<path class="st5" d="M236.12,45.2c1.14-3.47,1.27-7.31,0.1-11.07c-3-9.54-13.17-14.85-22.71-11.85
				c-7.45,2.34-17.07,12.34-14.66,31.59c1.24,9.93,13.17,14.85,22.71,11.85c5.04-1.58,8.88-5.17,10.96-9.61
				c1.73,2.29,4.77,3.37,7.66,2.46c3.68-1.16,5.73-5.08,4.57-8.76C243.61,46.17,239.77,44.13,236.12,45.2z"/>
			<path class="st4" d="M215.76,67.59c-3.91,0-7.83-1.08-11.03-3.13c-3.89-2.5-6.33-6.22-6.87-10.47
				c-2.31-18.41,6.34-29.84,15.35-32.67c4.87-1.53,10.05-1.07,14.57,1.29c4.53,2.36,7.86,6.35,9.39,11.22
				c1.03,3.29,1.15,6.75,0.35,10.11c3.6-0.23,7.06,2,8.18,5.57c1.32,4.2-1.02,8.69-5.23,10.02c-2.71,0.85-5.66,0.17-7.73-1.68
				c-2.37,4.2-6.27,7.39-10.89,8.84C219.9,67.29,217.83,67.59,215.76,67.59z M218.96,22.44c-1.72,0-3.46,0.26-5.15,0.8
				c-8.25,2.59-16.13,13.24-13.97,30.51c0.46,3.65,2.58,6.86,5.96,9.03c4.42,2.84,10.34,3.6,15.46,1.99
				c4.55-1.43,8.32-4.74,10.35-9.08c0.15-0.32,0.45-0.53,0.8-0.57c0.35-0.04,0.69,0.11,0.9,0.39c1.52,2.02,4.16,2.86,6.57,2.11
				c3.15-0.99,4.91-4.36,3.92-7.51c-0.97-3.09-4.28-4.86-7.39-3.95c-0.35,0.11-0.74,0-1-0.26c-0.26-0.27-0.35-0.66-0.23-1.01
				c1.13-3.43,1.16-7.04,0.09-10.45c-1.37-4.36-4.36-7.93-8.41-10.04C224.38,23.09,221.68,22.44,218.96,22.44z"/>
		</g>
		<g>
			<path class="st4" d="M234.22,52.55c-0.24,0-0.47-0.08-0.66-0.25c-0.41-0.37-0.45-1-0.08-1.41c1.76-1.98,4.57-2.89,7.16-2.32
				c0.54,0.12,0.88,0.65,0.76,1.19c-0.12,0.54-0.65,0.88-1.19,0.76c-1.86-0.41-3.97,0.27-5.23,1.7
				C234.77,52.44,234.49,52.55,234.22,52.55z"/>
		</g>
		<g>
			<path class="st4" d="M210.43,60.6c-1.08,0-2.13-0.27-3.03-0.8c-0.48-0.28-0.63-0.89-0.35-1.37c0.28-0.48,0.9-0.63,1.37-0.35
				c1.05,0.62,2.46,0.69,3.77,0.18c1.31-0.51,2.31-1.51,2.66-2.68c0.16-0.53,0.72-0.83,1.25-0.67c0.53,0.16,0.83,0.72,0.67,1.25
				c-0.53,1.75-1.97,3.23-3.85,3.96C212.1,60.45,211.26,60.6,210.43,60.6z"/>
		</g>
		<g>
			<path class="st4" d="M212.75,41.35c-0.28,0-0.56-0.12-0.76-0.35c-0.36-0.42-0.31-1.05,0.11-1.41l0.14-0.12
				c2.85-2.49,5.38-2.59,7.52-0.3c0.38,0.4,0.36,1.04-0.05,1.41c-0.4,0.38-1.04,0.36-1.41-0.05c-1.59-1.7-3-1.09-4.75,0.44
				l-0.15,0.13C213.22,41.27,212.98,41.35,212.75,41.35z"/>
		</g>
		<g>
			<path class="st4" d="M206.6,52.93c-0.2,0-0.4-0.06-0.58-0.18c-0.45-0.32-0.56-0.94-0.24-1.39c1.6-2.27,1.96-4.71,1.92-5.8
				c-0.04-1.12-0.7-2.24-1.8-3.06c-1.15-0.86-2.57-1.2-3.69-0.91c-0.54,0.14-1.08-0.18-1.22-0.71c-0.14-0.53,0.18-1.08,0.71-1.22
				c1.73-0.46,3.74,0.01,5.39,1.24c1.6,1.19,2.55,2.86,2.61,4.6c0.06,1.66-0.5,4.5-2.28,7.03C207.23,52.78,206.92,52.93,206.6,52.93
				z"/>
		</g>
		<path class="st4" d="M204.24,47.9c0.42,1.16,1.43,1.86,2.26,1.56c0.83-0.3,1.17-1.48,0.76-2.64c-0.42-1.16-1.43-1.86-2.26-1.56
			C204.16,45.56,203.82,46.74,204.24,47.9z"/>
		<path class="st4" d="M214.58,46.04c0.42,1.16,1.43,1.86,2.26,1.56c0.83-0.3,1.17-1.48,0.76-2.64c-0.42-1.16-1.43-1.86-2.26-1.56
			C214.5,43.7,214.16,44.88,214.58,46.04z"/>
		<path class="st4" d="M240.97,36.44c0.37,2.98,0.56,5.98,0.65,8.97c0.01,0.26-0.15,0.54-0.44,0.55c-2.61,0.06-5.2-0.35-7.67-1.19
			c-4.52-1.55-8.5-4.57-11.1-8.59c-2.84-4.4-4.05-9.79-3.33-14.98c0.08-0.59,0.92-0.49,0.97,0.04c1.79-1.45,4.45-1.45,6.62-0.92
			c2.42,0.59,4.59,1.84,6.67,3.17c2.25,1.44,4.28,2.96,5.56,5.38C240.13,31.2,240.65,33.84,240.97,36.44z"/>
		<path class="st4" d="M213.1,21.6c2.85-0.9,5.75-1.08,8.52-0.67c-0.59,1.58-1.35,3.1-2.28,4.53c-2.75,4.21-6.95,7.37-11.7,8.99
			c-2.6,0.88-5.33,1.3-8.07,1.22c-0.01,0-0.02-0.01-0.02-0.01C202.61,27.67,208.28,23.11,213.1,21.6z"/>
		<g>
			<g>
				<path class="st5" d="M170.56,218.23l-1.76-9.98c-0.33-2.11-2.87-3.47-5.68-3.04l0,0c-2.81,0.44-4.82,2.5-4.49,4.62l1.76,9.98
					c0.33,2.11,2.87,3.47,5.68,3.04l0,0C168.88,222.41,170.89,220.35,170.56,218.23z"/>
				<path class="st4" d="M165.04,223.97c-2.88,0-5.31-1.64-5.68-4l-1.76-9.96c-0.42-2.7,1.98-5.3,5.36-5.83
					c3.37-0.53,6.45,1.23,6.87,3.91l1.76,9.96c0,0.01,0,0.01,0,0.02c0.42,2.68-1.99,5.28-5.36,5.81
					C165.83,223.94,165.43,223.97,165.04,223.97z M164.15,206.18c-0.28,0-0.57,0.02-0.87,0.07c-2.2,0.34-3.86,1.91-3.62,3.43
					l1.76,9.96c0.24,1.54,2.29,2.53,4.49,2.19c2.19-0.34,3.85-1.9,3.62-3.42l-1.76-9.97C167.57,207.1,166,206.18,164.15,206.18z"/>
			</g>
			<g>
				<path class="st5" d="M161.81,220.67l-1.85-11.92c-0.41-2.62-2.86-4.42-5.49-4.01l-0.67,0.1c-2.62,0.41-4.42,2.86-4.01,5.49
					l1.85,11.92c0.41,2.62,2.86,4.42,5.49,4.01l0.67-0.1C160.42,225.74,162.22,223.29,161.81,220.67z"/>
				<path class="st4" d="M156.38,227.36c-1.23,0-2.43-0.39-3.44-1.13c-1.26-0.92-2.09-2.28-2.33-3.82l-1.85-11.92
					c-0.5-3.19,1.69-6.18,4.88-6.68l0.67-0.1c1.54-0.24,3.09,0.14,4.35,1.06c1.26,0.92,2.09,2.28,2.33,3.82l1.85,11.92
					c0.5,3.19-1.69,6.18-4.88,6.68l-0.67,0.1C156.98,227.33,156.68,227.36,156.38,227.36z M155.22,205.72
					c-0.19,0-0.39,0.01-0.59,0.05l-0.67,0.1c-0.99,0.15-1.87,0.69-2.46,1.5c-0.59,0.81-0.83,1.8-0.68,2.8l1.85,11.92
					c0.15,0.99,0.69,1.87,1.5,2.46c0.81,0.59,1.81,0.84,2.8,0.68l0.67-0.1c2.05-0.32,3.46-2.25,3.14-4.3l0,0l-1.85-11.92
					c-0.15-0.99-0.69-1.87-1.5-2.46C156.78,205.97,156.01,205.72,155.22,205.72z"/>
			</g>
			<g>
				<path class="st5" d="M152.77,220.99l-1.85-11.92c-0.41-2.62-2.86-4.42-5.49-4.01l-0.67,0.1c-2.62,0.41-4.42,2.86-4.01,5.49
					l1.85,11.92c0.41,2.62,2.86,4.42,5.49,4.01l0.67-0.1C151.38,226.07,153.18,223.62,152.77,220.99z"/>
				<path class="st4" d="M147.34,227.68c-2.83,0-5.33-2.07-5.78-4.95l-1.85-11.92c-0.5-3.19,1.69-6.18,4.88-6.68l0.67-0.11
					c3.19-0.5,6.18,1.69,6.68,4.88l1.85,11.92l0,0c0.5,3.19-1.69,6.18-4.88,6.68l-0.67,0.11
					C147.94,227.66,147.64,227.68,147.34,227.68z M146.17,206.05c-0.19,0-0.38,0.01-0.58,0.04l-0.67,0.11
					c-0.99,0.15-1.87,0.69-2.46,1.5c-0.59,0.81-0.83,1.8-0.68,2.8l1.85,11.92c0.32,2.05,2.25,3.46,4.3,3.14l0.67-0.11
					c0.99-0.15,1.87-0.69,2.46-1.5c0.59-0.81,0.83-1.8,0.68-2.8l-1.85-11.92C149.6,207.38,147.99,206.05,146.17,206.05z"/>
			</g>
			<g>
				<path class="st5" d="M143.36,221.94l-2.14-13.76c-0.33-2.11-2.87-3.47-5.68-3.04l0,0c-2.81,0.44-13.75,7.38-13.42,9.49
					l9.65-0.27l1.42,9.15c0.33,2.11,2.87,3.47,5.68,3.04l0,0C141.68,226.12,143.69,224.05,143.36,221.94z"/>
				<path class="st4" d="M137.82,227.68c-1.16,0-2.27-0.26-3.21-0.77c-1.37-0.73-2.24-1.88-2.45-3.23l-1.28-8.24l-8.73,0.24
					c-0.53,0.01-0.98-0.36-1.06-0.88c-0.09-0.59-0.33-2.14,5.98-6.4c2.77-1.87,6.56-4.01,8.31-4.28c3.37-0.52,6.45,1.23,6.87,3.91
					l2.14,13.76h0c0.42,2.68-1.99,5.28-5.36,5.81C138.62,227.65,138.22,227.68,137.82,227.68z M131.77,213.33
					c0.51,0,0.95,0.37,1.03,0.88l1.42,9.15c0.11,0.69,0.59,1.3,1.37,1.72c0.87,0.47,1.98,0.63,3.12,0.45
					c2.2-0.34,3.86-1.91,3.62-3.43l-2.14-13.76c-0.24-1.52-2.3-2.51-4.49-2.17c-2.28,0.35-9.45,4.98-11.8,7.37l7.84-0.22
					C131.75,213.33,131.76,213.33,131.77,213.33z"/>
			</g>
		</g>
		<g>
			<path class="st4" d="M290.24,124.83c-0.35,0-0.69-0.18-0.87-0.51l-16.69-29.43c-4.99-8.8-13.56-14.88-23.51-16.69
				c-0.54-0.1-0.9-0.62-0.81-1.16c0.1-0.54,0.62-0.91,1.16-0.8c10.54,1.92,19.61,8.36,24.89,17.67l16.69,29.43
				c0.27,0.48,0.1,1.09-0.38,1.36C290.58,124.79,290.41,124.83,290.24,124.83z"/>
		</g>
		<g>
			<path class="st4" d="M198.63,93.12l12.97,29.94L198.63,93.12z"/>
			<path class="st4" d="M211.6,124.05c-0.39,0-0.75-0.23-0.92-0.6l-12.97-29.94c-0.22-0.51,0.01-1.1,0.52-1.32
				c0.51-0.22,1.1,0.01,1.31,0.52l12.97,29.94c0.22,0.51-0.01,1.1-0.52,1.32C211.87,124.03,211.74,124.05,211.6,124.05z"/>
		</g>
		<g>
			<path class="st5" d="M218.59,123.05L222.8,94c0,0,1.77-32.15,34.36-18.84L218.59,123.05z"/>
			<path class="st4" d="M218.59,124.05c-0.05,0-0.1,0-0.14-0.01c-0.55-0.08-0.93-0.59-0.85-1.13l4.21-29.05
				c0.02-0.48,0.87-13.93,10.53-20.04c6.29-3.98,14.77-3.84,25.2,0.42c0.51,0.21,0.76,0.79,0.55,1.3c-0.21,0.51-0.79,0.76-1.3,0.55
				c-9.79-4-17.65-4.19-23.37-0.58c-8.79,5.55-9.61,18.43-9.62,18.56l-4.22,29.14C219.5,123.7,219.08,124.05,218.59,124.05z"/>
		</g>
		<circle class="st4" cx="260.8" cy="67" r="17.47"/>
	</g>
</g>
</svg>
