<?xml version="1.0" encoding="utf-8"?>
<!-- Generator: Adobe Illustrator 25.0.0, SVG Export Plug-In . SVG Version: 6.00 Build 0)  -->
<svg version="1.1" xmlns="http://www.w3.org/2000/svg" xmlns:xlink="http://www.w3.org/1999/xlink" x="0px" y="0px"
	 viewBox="0 0 160.88 232.85" style="enable-background:new 0 0 160.88 232.85;" xml:space="preserve">
<style type="text/css">
	.st0{display:none;}
	.st1{display:inline;}
	.st2{clip-path:url(#SVGID_2_);fill:#FFFFFF;}
	.st3{fill:#E4F1F7;}
	.st4{fill:#080717;}
	.st5{fill:#FFFFFF;}
	.st6{fill:#FFB000;}
	.st7{fill:none;stroke:#000000;stroke-width:2;stroke-linecap:round;stroke-linejoin:round;stroke-miterlimit:10;}
	.st8{fill:none;stroke:#080717;stroke-width:2;stroke-linecap:round;stroke-linejoin:round;stroke-miterlimit:10;}
	.st9{fill:#070A17;}
</style>
<g id="Layer_2" class="st0">
	<g class="st1">
		<defs>
			<rect id="SVGID_1_" x="-4419.11" y="-1003.86" width="6602.94" height="1370.62"/>
		</defs>
		<use xlink:href="#SVGID_1_"  style="overflow:visible;fill:#FFFFFF;"/>
		<clipPath id="SVGID_2_">
			<use xlink:href="#SVGID_1_"  style="overflow:visible;"/>
		</clipPath>
		<rect x="-4419.11" y="-1003.86" class="st2" width="6602.94" height="1370.62"/>
	</g>
	<g class="st1">
		<rect x="-59.44" y="0.75" class="st3" width="302.93" height="234.11"/>
	</g>
</g>
<g id="_x3C_Layer_x3E_">
	<g>
		<g>
			<path class="st5" d="M93.14,71.11L52.39,44.63l-45.56-8.4c-3.36-0.62-6.32,2.28-5.76,5.65l0.66,3.98
				c1.02,6.23,5.44,11.36,11.44,13.3l22.03,7.14l-6.7,1.29c-4.51,0.87-7.76,4.83-7.74,9.42l0.03,6.4c0.01,2.28,0.83,4.48,2.33,6.21
				l4.02,4.65l-3.04,1.16c-4.48,1.71-7.2,6.28-6.58,11.03l0.5,3.85c0.18,1.37,0.63,2.7,1.33,3.9l4.89,8.34l-1.69,0.81
				c-3.91,1.88-6.06,6.18-5.21,10.43l9.12,45.98c0.91,4.59,6.7,6.14,9.78,2.62l0,0c3.02-3.45,4.59-7.94,4.37-12.52l-0.98-20.55
				l15.78,8.92l6.24,25.45c3.84,15.65,14.96,28.5,29.9,34.53l0,0L93.14,71.11z"/>
			<path class="st4" d="M91.53,219.25c-0.12,0-0.25-0.02-0.37-0.07c-15.19-6.14-26.6-19.3-30.5-35.22l-6.14-25.03l-13.83-7.81
				l0.89,18.74c0.23,4.86-1.41,9.56-4.62,13.23c-1.68,1.92-4.25,2.7-6.72,2.04c-2.46-0.66-4.3-2.62-4.8-5.12L16.34,134
				c-0.93-4.71,1.43-9.45,5.76-11.53l0.71-0.34l-4.34-7.41c-0.77-1.32-1.27-2.76-1.46-4.27l-0.5-3.85
				c-0.69-5.24,2.28-10.21,7.21-12.1l1.71-0.65l-3.09-3.57c-1.65-1.9-2.56-4.34-2.57-6.86l-0.03-6.4
				c-0.02-5.07,3.58-9.45,8.56-10.41l2.89-0.56l-18.33-5.94C6.47,58.05,1.83,52.64,0.74,46.02l-0.66-3.98
				c-0.32-1.93,0.3-3.83,1.7-5.2c1.4-1.37,3.3-1.95,5.23-1.6l45.56,8.4c0.13,0.02,0.25,0.07,0.36,0.14l40.75,26.48
				c0.46,0.3,0.59,0.92,0.29,1.38c-0.3,0.46-0.92,0.6-1.38,0.29L52.01,45.58L6.65,37.21c-1.28-0.23-2.54,0.15-3.47,1.06
				c-0.93,0.91-1.34,2.16-1.13,3.45l0.66,3.98c0.97,5.88,5.09,10.68,10.76,12.52l22.03,7.14c0.43,0.14,0.72,0.56,0.69,1.01
				c-0.03,0.46-0.36,0.83-0.81,0.92l-6.7,1.29c-4.04,0.78-6.95,4.33-6.93,8.44l0.03,6.4c0.01,2.04,0.75,4.01,2.08,5.56l4.02,4.65
				c0.21,0.25,0.29,0.58,0.21,0.9c-0.08,0.32-0.31,0.57-0.61,0.69l-3.04,1.16c-4.06,1.56-6.51,5.66-5.94,9.97l0.5,3.85
				c0.16,1.25,0.57,2.43,1.21,3.52l4.89,8.34c0.14,0.24,0.18,0.53,0.09,0.8c-0.08,0.27-0.27,0.49-0.52,0.61l-1.69,0.81
				c-3.5,1.69-5.42,5.53-4.66,9.34l9.12,45.98c0.35,1.77,1.6,3.11,3.35,3.58c1.75,0.47,3.5-0.06,4.69-1.43
				c2.87-3.27,4.33-7.47,4.12-11.81l-0.98-20.55c-0.02-0.36,0.16-0.71,0.47-0.9c0.31-0.19,0.7-0.2,1.02-0.02l15.78,8.92
				c0.24,0.14,0.41,0.37,0.48,0.63l6.24,25.45c3.75,15.29,14.7,27.95,29.3,33.84c0.51,0.21,0.76,0.79,0.55,1.3
				C92.31,219.01,91.93,219.25,91.53,219.25z"/>
		</g>
		<g>
			<g>
				<path class="st5" d="M123.12,113.89l-7.58-36.42c-1.47-7.08,0.36-14.45,4.97-20.02l0,0c2.92-3.52,8.51-2.79,10.43,1.35
					l14.98,32.3l13.96,56.9l-3.49,83.83l-37.62-0.05l-27.8-0.04l0.56-13.52l0,0c-14.94-6.03-26.06-18.88-29.9-34.53l-6.24-25.45
					l-15.78-8.92l0.98,20.55c0.22,4.58-1.35,9.07-4.37,12.52l0,0c-3.08,3.52-8.87,1.97-9.78-2.62l-9.12-45.98
					c-0.84-4.26,1.3-8.55,5.21-10.43l1.69-0.81l-4.89-8.34c-0.7-1.2-1.15-2.52-1.33-3.9l-0.5-3.85c-0.62-4.76,2.1-9.32,6.58-11.03
					l3.04-1.16l-4.02-4.65c-1.49-1.73-2.32-3.93-2.33-6.21l-0.03-6.4c-0.02-4.59,3.23-8.55,7.74-9.42l6.7-1.29l-22.03-7.14
					c-6-1.95-10.42-7.08-11.44-13.3l-0.66-3.98c-0.55-3.37,2.4-6.27,5.76-5.65l45.56,8.4l40.75,26.48l21.2,63.26L123.12,113.89z"/>
				<path class="st4" d="M156.39,232.85C156.39,232.85,156.39,232.85,156.39,232.85l-65.42-0.08c-0.27,0-0.53-0.11-0.72-0.31
					c-0.19-0.2-0.29-0.46-0.28-0.73l0.53-12.82c-14.87-6.25-26-19.26-29.84-34.95l-6.14-25.03l-13.83-7.81l0.89,18.74
					c0.23,4.86-1.41,9.56-4.62,13.23c-1.68,1.92-4.25,2.7-6.72,2.04c-2.46-0.66-4.3-2.62-4.8-5.12L16.34,134
					c-0.93-4.71,1.43-9.45,5.76-11.53l0.71-0.34l-4.34-7.41c-0.77-1.32-1.27-2.76-1.46-4.27l-0.5-3.85
					c-0.69-5.24,2.28-10.21,7.21-12.1l1.71-0.65l-3.09-3.57c-1.65-1.9-2.56-4.34-2.57-6.86l-0.03-6.4
					c-0.02-5.07,3.58-9.45,8.56-10.41l2.89-0.56l-18.33-5.94C6.47,58.05,1.83,52.64,0.74,46.02l-0.66-3.98
					c-0.32-1.93,0.3-3.83,1.7-5.2c1.4-1.37,3.3-1.95,5.23-1.6l45.56,8.4c0.13,0.02,0.25,0.07,0.36,0.14l40.75,26.48
					c0.19,0.12,0.33,0.31,0.4,0.52l21.2,63.26c0.18,0.52-0.11,1.09-0.63,1.27c-0.53,0.17-1.09-0.11-1.27-0.63L92.3,71.75
					L52.01,45.58L6.65,37.21c-1.28-0.23-2.54,0.15-3.47,1.06c-0.93,0.91-1.34,2.16-1.13,3.45l0.66,3.98
					c0.97,5.88,5.09,10.68,10.76,12.52l22.03,7.14c0.43,0.14,0.72,0.56,0.69,1.01c-0.03,0.46-0.36,0.83-0.81,0.92l-6.7,1.29
					c-4.04,0.78-6.95,4.33-6.93,8.44l0.03,6.4c0.01,2.04,0.75,4.01,2.08,5.56l4.02,4.65c0.21,0.25,0.29,0.58,0.21,0.9
					c-0.08,0.32-0.31,0.57-0.61,0.69l-3.04,1.16c-4.06,1.56-6.51,5.66-5.94,9.97l0.5,3.85c0.16,1.25,0.57,2.43,1.21,3.52l4.89,8.34
					c0.14,0.24,0.18,0.53,0.09,0.8c-0.08,0.27-0.27,0.49-0.52,0.61l-1.69,0.81c-3.5,1.69-5.42,5.53-4.66,9.34l9.12,45.98
					c0.35,1.77,1.6,3.11,3.35,3.58c1.75,0.47,3.5-0.06,4.69-1.43c2.87-3.27,4.33-7.47,4.12-11.81l-0.98-20.55
					c-0.02-0.36,0.16-0.71,0.47-0.9c0.31-0.19,0.7-0.2,1.02-0.02l15.78,8.92c0.24,0.14,0.41,0.37,0.48,0.63l6.24,25.45
					c3.75,15.29,14.7,27.95,29.3,33.84c0.39,0.16,0.64,0.55,0.62,0.97l-0.52,12.48l63.41,0.08l3.44-82.73l-13.9-56.67l-14.93-32.21
					c-0.76-1.64-2.28-2.75-4.06-2.98c-1.79-0.23-3.54,0.46-4.69,1.85c-4.45,5.36-6.19,12.35-4.77,19.17l7.58,36.42
					c0.11,0.54-0.23,1.07-0.78,1.18c-0.54,0.11-1.07-0.24-1.18-0.78l-7.58-36.42c-1.54-7.42,0.34-15.02,5.18-20.86
					c1.59-1.92,4.01-2.87,6.49-2.55c2.47,0.32,4.57,1.86,5.62,4.12l14.98,32.3c0.03,0.06,0.05,0.12,0.06,0.18l13.96,56.9
					c0.02,0.09,0.03,0.19,0.03,0.28l-3.49,83.83C157.37,232.42,156.92,232.85,156.39,232.85z"/>
			</g>
		</g>
		<g>
			<path class="st6" d="M105.99,201.12H50.61c-4.94,0-8.95-4.01-8.95-8.95V41.83c0-4.94,4.01-8.95,8.95-8.95h55.38
				c4.94,0,8.95,4.01,8.95,8.95v150.34C114.94,197.11,110.94,201.12,105.99,201.12z"/>
			<path class="st4" d="M105.99,203.12H50.61c-6.04,0-10.95-4.91-10.95-10.95V41.83c0-6.04,4.91-10.95,10.95-10.95h55.38
				c6.04,0,10.95,4.91,10.95,10.95v150.34C116.94,198.21,112.03,203.12,105.99,203.12z M50.61,34.88c-3.83,0-6.95,3.12-6.95,6.95
				v150.34c0,3.83,3.12,6.95,6.95,6.95h55.38c3.83,0,6.95-3.12,6.95-6.95V41.83c0-3.83-3.12-6.95-6.95-6.95H50.61z"/>
		</g>
		<g>
			<path class="st5" d="M38,104.28l13.38,26.68c2.37,4.78,2.99,10.24,1.75,15.43l0,0c-1.54,6.47-10.2,7.73-13.51,1.95l-15.05-26.27
				L38,104.28z"/>
			<path class="st4" d="M45.92,153.05c-2.97,0-5.64-1.54-7.17-4.2L23.7,122.58c-0.27-0.48-0.11-1.09,0.37-1.37
				c0.48-0.27,1.09-0.11,1.36,0.37l15.05,26.27c1.58,2.76,4.34,3.42,6.41,3.12c2.06-0.3,4.53-1.72,5.26-4.81
				c1.18-4.95,0.58-10.2-1.68-14.76L37.1,104.73c-0.25-0.49-0.05-1.09,0.45-1.34c0.49-0.25,1.1-0.05,1.34,0.45l13.38,26.68
				c2.47,4.99,3.12,10.71,1.83,16.11c-0.81,3.4-3.46,5.83-6.92,6.33C46.76,153.02,46.33,153.05,45.92,153.05z"/>
		</g>
		<path class="st4" d="M93,62.84V13.72C93,6.14,86.85,0,79.27,0H24.85c-7.58,0-13.72,6.14-13.72,13.72v23.32
			c0,7.58,6.14,13.72,13.72,13.72h49.25c3.34,0,6.56,1.22,9.07,3.43L93,62.84z"/>
		<path class="st6" d="M32.52,71.08l22.84,23.3c3.73,3.81,6.02,8.81,6.46,14.12l0,0c0.55,6.63-7.29,10.51-12.23,6.06L27.12,94.27
			L32.52,71.08z"/>
		<g>
			<path class="st5" d="M32.52,71.08l22.84,23.3c3.73,3.81,6.02,8.81,6.46,14.12l0,0c0.55,6.63-7.29,10.51-12.23,6.06L27.12,94.27
				L32.52,71.08z"/>
			<path class="st4" d="M54.47,117.49c-2,0-3.95-0.74-5.54-2.18L26.45,95.02c-0.41-0.37-0.44-1-0.07-1.41
				c0.37-0.41,1-0.44,1.41-0.07l22.47,20.29c2.36,2.13,5.19,1.9,7.06,0.98c1.87-0.92,3.77-3.04,3.5-6.21
				c-0.42-5.07-2.62-9.87-6.18-13.51l-22.84-23.3c-0.39-0.39-0.38-1.03,0.01-1.41c0.39-0.39,1.03-0.38,1.41,0.01l22.84,23.3
				c3.89,3.97,6.29,9.2,6.75,14.74c0.29,3.49-1.48,6.61-4.61,8.17C57,117.19,55.73,117.49,54.47,117.49z"/>
		</g>
		<g>
			<path class="st5" d="M39.91,26.22c0,2.63-2.13,4.76-4.76,4.76c-2.63,0-4.76-2.13-4.76-4.76s2.13-4.76,4.76-4.76
				C37.78,21.46,39.91,23.59,39.91,26.22z"/>
			<path class="st5" d="M56.82,26.22c0,2.63-2.13,4.76-4.76,4.76s-4.76-2.13-4.76-4.76s2.13-4.76,4.76-4.76S56.82,23.59,56.82,26.22
				z"/>
			<path class="st5" d="M73.73,26.22c0,2.63-2.13,4.76-4.76,4.76c-2.63,0-4.76-2.13-4.76-4.76s2.13-4.76,4.76-4.76
				C71.6,21.46,73.73,23.59,73.73,26.22z"/>
		</g>
		<g>
			<path class="st5" d="M120.51,57.45L120.51,57.45c-4.62,5.57-6.45,12.94-4.97,20.02l7.58,36.42l-3.06,6.54
				c-8.72,18.59-9.1,40.02-1.04,58.91v0L120.51,57.45z"/>
			<path class="st4" d="M119.01,180.34c-0.39,0-0.76-0.23-0.92-0.61c-8.15-19.13-7.77-40.9,1.06-59.73l2.92-6.23l-7.52-36.1
				c-1.54-7.42,0.34-15.02,5.18-20.86c0.35-0.42,0.98-0.48,1.41-0.13c0.42,0.35,0.48,0.98,0.13,1.41
				c-4.45,5.36-6.19,12.35-4.77,19.17l7.58,36.42c0.04,0.21,0.02,0.43-0.07,0.63l-3.06,6.54c-8.58,18.31-8.96,39.49-1.03,58.09
				c0.22,0.51-0.02,1.1-0.53,1.31C119.27,180.31,119.14,180.34,119.01,180.34z"/>
		</g>
	</g>
</g>
</svg>
