<?xml version="1.0" encoding="utf-8"?>
<!-- Generator: Adobe Illustrator 25.0.0, SVG Export Plug-In . SVG Version: 6.00 Build 0)  -->
<svg version="1.1" xmlns="http://www.w3.org/2000/svg" xmlns:xlink="http://www.w3.org/1999/xlink" x="0px" y="0px"
	 viewBox="0 0 227.76 235.6" style="enable-background:new 0 0 227.76 235.6;" xml:space="preserve">
<style type="text/css">
	.st0{display:none;}
	.st1{display:inline;}
	.st2{clip-path:url(#SVGID_2_);fill:#FFFFFF;}
	.st3{fill:#E4F1F7;}
	.st4{fill:#080717;}
	.st5{fill:#FFFFFF;}
	.st6{fill:#FFB000;}
	.st7{fill:none;stroke:#000000;stroke-width:2;stroke-linecap:round;stroke-linejoin:round;stroke-miterlimit:10;}
	.st8{fill:none;stroke:#080717;stroke-width:2;stroke-linecap:round;stroke-linejoin:round;stroke-miterlimit:10;}
	.st9{fill:#070A17;}
</style>
<g id="Layer_2" class="st0">
	<g class="st1">
		<defs>
			<rect id="SVGID_1_" x="-5817.17" y="-139.86" width="6602.94" height="1370.62"/>
		</defs>
		<use xlink:href="#SVGID_1_"  style="overflow:visible;fill:#FFFFFF;"/>
		<clipPath id="SVGID_2_">
			<use xlink:href="#SVGID_1_"  style="overflow:visible;"/>
		</clipPath>
		<rect x="-5817.17" y="-139.86" class="st2" width="6602.94" height="1370.62"/>
	</g>
	<g class="st1">
		<rect x="-28.67" y="2.81" class="st3" width="302.93" height="234.11"/>
	</g>
</g>
<g id="_x3C_Layer_x3E_">
	<g>
		<path class="st4" d="M63.58,170.32L40.52,234.6h187.24l-13.56-38.17c-3.37-9.49-10.68-17.05-20.04-20.75l-54.52-21.51
			c-13.07-5.7-28.34-1.73-36.97,9.61l-7.64,10.03L63.58,170.32z"/>
		<g>
			<path class="st5" d="M95.13,172.75l4.96-19.84c2.24-8.94,0.88-18.41-3.78-26.36l-13.33-22.78c-1.18-2.02-3.46-3.12-5.77-2.78l0,0
				c-3.56,0.51-5.78,4.13-4.62,7.53l5.94,17.46l-25.47,1.9l-26.1-16.64c-2.41-1.54-5.58-1.1-7.49,1.03l0,0
				c-1.18,1.31-1.03,3.34,0.33,4.47l45.29,37.55l-1.22,14.97L95.13,172.75z"/>
			<path class="st4" d="M95.13,173.75c-0.08,0-0.16-0.01-0.24-0.03c-0.54-0.13-0.86-0.68-0.73-1.21l4.96-19.84
				c2.19-8.74,0.88-17.84-3.67-25.62l-13.33-22.78c-0.98-1.67-2.85-2.57-4.77-2.3c-1.4,0.2-2.63,1.01-3.37,2.21
				c-0.74,1.21-0.9,2.67-0.45,4.01l5.94,17.46c0.1,0.29,0.06,0.62-0.11,0.87c-0.17,0.26-0.45,0.42-0.76,0.45l-25.47,1.9
				c-0.21,0.01-0.43-0.04-0.61-0.15l-26.1-16.64c-2.01-1.28-4.62-0.92-6.21,0.85c-0.39,0.43-0.58,0.99-0.53,1.56
				c0.04,0.58,0.31,1.1,0.76,1.47l45.29,37.55c0.25,0.21,0.38,0.53,0.36,0.85l-1.22,14.97c-0.04,0.55-0.53,0.97-1.08,0.92
				c-0.55-0.04-0.96-0.53-0.92-1.08l1.18-14.46L19.15,117.5c-0.87-0.72-1.39-1.74-1.48-2.86c-0.08-1.12,0.29-2.21,1.04-3.05
				c2.25-2.5,5.94-3.01,8.78-1.2l25.82,16.46l23.85-1.78l-5.52-16.23c-0.65-1.91-0.42-3.98,0.64-5.7c1.05-1.71,2.8-2.86,4.79-3.15
				c2.73-0.39,5.39,0.89,6.78,3.27l13.33,22.78c4.82,8.23,6.19,17.86,3.88,27.11l-4.96,19.84
				C95.98,173.45,95.57,173.75,95.13,173.75z"/>
		</g>
		<g>
			<path class="st6" d="M94.1,108.4l-77.54,0.94c-8.52,0.1-15.51-6.72-15.62-15.24L0,16.56C-0.1,8.04,6.72,1.05,15.24,0.94L92.79,0
				c8.52-0.1,15.51,6.72,15.62,15.24l0.94,77.54C109.45,101.31,102.62,108.3,94.1,108.4z"/>
		</g>
		<path class="st5" d="M58.39,66.07l-13.28,7.67c-3.02,1.74-6.78-0.44-6.78-3.92V54.48V39.15c0-3.48,3.77-5.66,6.78-3.92l13.28,7.67
			l13.29,7.67c3.02,1.74,3.02,6.09,0,7.84L58.39,66.07z"/>
		<g>
			<path class="st5" d="M40.02,126.05l-7.18-21.24c-0.66-1.96,1.18-3.85,3.16-3.24l0,0c2.53,0.78,4.61,2.58,5.74,4.97l10.04,19.67
				L40.02,126.05z"/>
			<path class="st4" d="M51.77,127.2c-0.36,0-0.71-0.2-0.89-0.55l-10.04-19.67c-1.02-2.15-2.89-3.77-5.14-4.47
				c-0.57-0.18-1.15-0.02-1.56,0.4c-0.41,0.42-0.54,1.01-0.36,1.57l7.18,21.24c0.18,0.52-0.1,1.09-0.63,1.27
				c-0.53,0.18-1.09-0.1-1.27-0.63l-7.18-21.24c-0.43-1.27-0.11-2.65,0.82-3.6c0.93-0.96,2.3-1.31,3.58-0.91
				c2.79,0.86,5.1,2.86,6.35,5.5l10.02,19.65c0.25,0.49,0.06,1.09-0.44,1.34C52.08,127.17,51.92,127.2,51.77,127.2z"/>
		</g>
		<g>
			<path class="st5" d="M76.06,144.29l-14.92-12.06l-5.46-20.46c-0.75-2.79-2.91-4.99-5.69-5.77l0,0c-1.8-0.51-3.54,0.98-3.32,2.84
				l3.09,25.81L76.06,144.29z"/>
			<path class="st4" d="M76.06,145.29c-0.22,0-0.44-0.07-0.63-0.22l-14.92-12.06c-0.17-0.13-0.28-0.31-0.34-0.52l-5.46-20.46
				c-0.65-2.44-2.56-4.38-5-5.07c-0.53-0.15-1.08-0.03-1.49,0.33c-0.42,0.36-0.62,0.88-0.56,1.43l3.09,25.81
				c0.07,0.55-0.33,1.05-0.87,1.11c-0.54,0.07-1.05-0.33-1.11-0.87l-3.09-25.81c-0.14-1.21,0.32-2.4,1.24-3.18
				c0.92-0.79,2.17-1.06,3.34-0.73c3.11,0.88,5.55,3.36,6.39,6.48l5.38,20.15l14.67,11.85c0.43,0.35,0.5,0.98,0.15,1.41
				C76.64,145.16,76.35,145.29,76.06,145.29z"/>
		</g>
		<g>
			<path class="st4" d="M154.12,133.4l10.65,3.25c12.24,3.74,25.31-3.22,29.05-15.46l1.29-4.22c4.68-15.33-4.03-31.7-19.36-36.37
				l-2.45,3.86c-9.61-2.93-19.87,2.53-22.8,12.14l-5.82,19.06C142.39,123.13,146.64,131.12,154.12,133.4z"/>
			
				<ellipse transform="matrix(0.016 -0.9999 0.9999 0.016 53.1479 276.1725)" class="st4" cx="166.89" cy="111.08" rx="24.54" ry="26.13"/>
			<path class="st4" d="M142.62,152.56c7.77-1.64,14.54-7.16,17.42-15.19l2.65-7.39l-19.6-7.06L142.62,152.56z"/>
			<path class="st4" d="M173.41,114.72c1.78-8.19-1.51-16.98-8.44-21.1h0c-4.32-2.57-9.19-2.82-13.48-1.13
				c2.28,0.26,8.64,1.36,9.83,5.6C162.77,103.27,162.8,113.11,173.41,114.72z"/>
			
				<ellipse transform="matrix(0.9624 -0.2717 0.2717 0.9624 -19.8056 44.2581)" class="st4" cx="149.92" cy="93.65" rx="11.68" ry="11.68"/>
			<path class="st4" d="M179.14,85.42c11.62,5.22,17.94,18.2,14.6,30.73c-3.28,0.98-6.92,1.03-10.49-0.06
				c-9.29-2.84-14.64-12.31-11.94-21.15C172.59,90.73,175.47,87.43,179.14,85.42z"/>
			
				<ellipse transform="matrix(0.2234 -0.9747 0.9747 0.2234 44.0816 238.5191)" class="st4" cx="171.73" cy="91.6" rx="11.68" ry="11.68"/>
			<path class="st4" d="M147.36,84.77c-1.94,6.35,1.64,13.06,7.98,15c6.35,1.94,13.06-1.64,15-7.98c1.94-6.35-1.64-13.06-7.98-15
				C156.01,74.84,149.29,78.42,147.36,84.77z"/>
			<g>
				<path class="st4" d="M188.82,98.2c-0.18,0-0.37-0.05-0.54-0.16c-0.47-0.3-0.6-0.92-0.3-1.38c2.36-3.7,7.17-3.27,7.38-3.24
					c0.55,0.05,0.95,0.54,0.9,1.09c-0.05,0.55-0.54,0.94-1.09,0.9l0,0c-0.04,0-3.8-0.32-5.5,2.33
					C189.47,98.04,189.15,98.2,188.82,98.2z"/>
			</g>
			<g>
				<path class="st4" d="M188.45,97.79c-0.44,0-0.84-0.29-0.96-0.73c-0.15-0.53,0.16-1.08,0.69-1.23c3.03-0.85,3.82-4.55,3.83-4.58
					c0.11-0.54,0.64-0.89,1.18-0.78c0.54,0.11,0.89,0.63,0.78,1.17c-0.04,0.2-1.02,4.93-5.25,6.12
					C188.63,97.78,188.54,97.79,188.45,97.79z"/>
			</g>
			<g>
				<path class="st5" d="M139.32,155.57l3.25,0.33l0.21-12.89c-1.53-0.35-3.05-0.89-4.51-1.66c-8.85-4.71-12.21-15.7-7.5-24.56
					l3.29-6.17c-1.64-1.12-2.23-3.29-1.29-5.09l0,0c0.95-1.82,3.11-2.57,4.97-1.82l0.94-1.77c4.71-8.85,15.7-12.21,24.56-7.5l0,0
					c7.47,3.97,11.02,12.42,9.13,20.27c3.28,1.03,5.48,4.26,5.08,7.8c-0.35,3.09-2.57,5.5-5.4,6.25l-0.58,36.01l6.59,5.66
					c-2.35,6.48-8.37,12.58-16.67,15.96c-13.18,5.37-27.07,1.84-31.03-7.89C127.25,170.89,131.17,161.76,139.32,155.57z"/>
				<path class="st4" d="M149.02,189.87c-9,0-16.74-3.98-19.6-11c-3.17-7.78,0.56-17.47,9.29-24.09c0.2-0.15,0.45-0.22,0.71-0.2
					l2.16,0.22l0.18-11.01c-1.4-0.38-2.73-0.9-3.96-1.56c-4.52-2.4-7.83-6.42-9.32-11.32c-1.49-4.89-0.99-10.08,1.41-14.59l2.9-5.46
					c-1.52-1.5-1.93-3.86-0.91-5.8c1.04-1.98,3.23-2.98,5.36-2.55l0.56-1.05c2.4-4.52,6.42-7.83,11.32-9.32
					c4.89-1.49,10.08-0.99,14.59,1.41c7.45,3.97,11.4,12.31,9.82,20.53c3.29,1.45,5.32,4.9,4.91,8.54c-0.36,3.17-2.45,5.8-5.41,6.87
					l-0.56,34.82l6.24,5.36c0.32,0.27,0.43,0.71,0.29,1.1c-2.53,7-8.98,13.18-17.23,16.54
					C157.48,189.04,153.12,189.87,149.02,189.87z M139.62,156.6c-7.78,6.06-11.13,14.67-8.34,21.51c3.75,9.2,17.08,12.49,29.73,7.34
					c7.48-3.05,13.36-8.52,15.86-14.73l-6.06-5.2c-0.23-0.19-0.35-0.48-0.35-0.77l0.58-36.01c0.01-0.45,0.31-0.84,0.74-0.95
					c2.54-0.67,4.37-2.79,4.67-5.39c0.34-3-1.51-5.83-4.38-6.73c-0.5-0.16-0.8-0.68-0.67-1.19c1.83-7.6-1.71-15.48-8.62-19.16
					c-4.04-2.15-8.68-2.6-13.07-1.26c-4.38,1.34-7.98,4.3-10.13,8.35l-0.94,1.77c-0.24,0.45-0.78,0.65-1.25,0.46
					c-1.42-0.57-3.01,0.02-3.72,1.36c-0.69,1.32-0.27,2.96,0.97,3.8c0.42,0.29,0.56,0.85,0.32,1.3l-3.29,6.17
					c-2.15,4.04-2.6,8.69-1.26,13.07c1.34,4.38,4.3,7.98,8.35,10.13c1.3,0.69,2.73,1.22,4.26,1.57c0.46,0.1,0.79,0.52,0.78,0.99
					l-0.21,12.89c0,0.28-0.13,0.54-0.34,0.73c-0.21,0.19-0.49,0.27-0.76,0.25L139.62,156.6z"/>
			</g>
			<g>
				<path class="st4" d="M168.82,124.54c-0.08,0-0.16-0.01-0.23-0.03c-0.54-0.13-0.87-0.67-0.74-1.21c0.87-3.63,4.34-4.15,4.49-4.17
					c0.54-0.09,1.05,0.3,1.13,0.85c0.08,0.54-0.3,1.05-0.85,1.13c-0.1,0.02-2.28,0.39-2.83,2.66
					C169.68,124.24,169.27,124.54,168.82,124.54z"/>
			</g>
			<g>
				<path class="st4" d="M139.77,116.52c-1.54,0-2.72-0.73-3.3-1.38c-0.37-0.41-0.34-1.04,0.07-1.41c0.41-0.37,1.03-0.34,1.41,0.06
					c0.19,0.19,1.84,1.78,4.64-0.47c0.43-0.35,1.06-0.28,1.41,0.15c0.35,0.43,0.28,1.06-0.15,1.41
					C142.33,116.09,140.94,116.52,139.77,116.52z"/>
			</g>
			<path class="st4" d="M142,105.51c-0.33,0.96,0.05,1.96,0.84,2.24c0.8,0.27,1.71-0.28,2.04-1.25c0.33-0.96-0.05-1.96-0.84-2.24
				C143.24,103.99,142.33,104.55,142,105.51z"/>
			<path class="st4" d="M145.8,100.19c-0.46,0.44,0.17,1.83,1.39,3.1c1.23,1.27,2.59,1.94,3.05,1.49c0.46-0.44-0.17-1.83-1.39-3.1
				C147.63,100.41,146.26,99.75,145.8,100.19z"/>
			<path class="st4" d="M168.61,97.42c7.49,2.57,12.15,10.23,10.8,18.18c-1.97,0.79-4.22,1.03-6.5,0.56
				c-5.91-1.22-9.77-6.78-8.6-12.4C164.86,101.08,166.45,98.87,168.61,97.42z"/>
			<g>
				<path class="st4" d="M146.41,144.2c-1.25,0-2.51-0.12-3.76-0.38c-0.54-0.11-0.89-0.64-0.78-1.18c0.11-0.54,0.64-0.89,1.18-0.78
					c7.38,1.5,15.02-2.1,18.56-8.76c0.26-0.49,0.87-0.67,1.35-0.41c0.49,0.26,0.67,0.87,0.41,1.35
					C160.02,140.35,153.38,144.2,146.41,144.2z"/>
			</g>
		</g>
		<g>
			<path class="st5" d="M85.94,235.6c-0.05,0-0.09,0-0.14-0.01c-0.55-0.08-0.93-0.58-0.85-1.13l8.38-58.69
				c0.08-0.55,0.58-0.93,1.13-0.85c0.55,0.08,0.93,0.58,0.85,1.13l-8.38,58.69C86.86,235.24,86.43,235.6,85.94,235.6z"/>
		</g>
		<g>
			<path class="st5" d="M177.46,233.5c-0.47,0-0.88-0.33-0.98-0.8l-2.1-10.48c-0.11-0.54,0.24-1.07,0.78-1.18
				c0.54-0.11,1.07,0.24,1.18,0.78l2.1,10.48c0.11,0.54-0.24,1.07-0.78,1.18C177.59,233.5,177.52,233.5,177.46,233.5z"/>
		</g>
	</g>
</g>
</svg>
