<?xml version="1.0" encoding="utf-8"?>
<!-- Generator: Adobe Illustrator 25.0.0, SVG Export Plug-In . SVG Version: 6.00 Build 0)  -->
<svg version="1.1" xmlns="http://www.w3.org/2000/svg" xmlns:xlink="http://www.w3.org/1999/xlink" x="0px" y="0px"
	 viewBox="0 0 300.95 217.52" style="enable-background:new 0 0 300.95 217.52;" xml:space="preserve">
<style type="text/css">
	.st0{display:none;}
	.st1{display:inline;}
	.st2{clip-path:url(#SVGID_2_);fill:#FFFFFF;}
	.st3{fill:#E4F1F7;}
	.st4{fill:#080717;}
	.st5{fill:#FFFFFF;}
	.st6{fill:#FFB000;}
	.st7{fill:none;stroke:#000000;stroke-width:2;stroke-linecap:round;stroke-linejoin:round;stroke-miterlimit:10;}
	.st8{fill:none;stroke:#080717;stroke-width:2;stroke-linecap:round;stroke-linejoin:round;stroke-miterlimit:10;}
	.st9{fill:#070A17;}
</style>
<g id="Layer_2" class="st0">
	<g class="st1">
		<defs>
			<rect id="SVGID_1_" x="-3282.18" y="-443.27" width="6602.94" height="1370.62"/>
		</defs>
		<use xlink:href="#SVGID_1_"  style="overflow:visible;fill:#FFFFFF;"/>
		<clipPath id="SVGID_2_">
			<use xlink:href="#SVGID_1_"  style="overflow:visible;"/>
		</clipPath>
		<rect x="-3282.18" y="-443.27" class="st2" width="6602.94" height="1370.62"/>
	</g>
	<g class="st1">
		<rect x="0.29" y="-13.29" class="st3" width="302.93" height="234.11"/>
	</g>
</g>
<g id="_x3C_Layer_x3E_">
	<g>
		<path d="M148.47,111.59c-4.41,2.83-6.66,5.83-6.99,8.05H14.73c1.91-6.24,5.42-13.24,11.73-14.64c11.87-2.64,12.53-3.3,7.25-15.83
			c-5.28-12.53-12.73-19.9,5.94-21.76c13.19-1.32,13.85-5.28,14.51-20.44c0.66-15.17,24.4-17.15,32.97-13.19
			c8.57,3.96,0-5.94,7.91-7.91c7.91-1.98,9.89,2.64,11.21,5.94c1.32,3.3,17.81,4.62,21.1,16.49c3.3,11.87,16.49,10.55,11.87,30.34
			c-4.62,19.78,1.98,11.87,7.25,13.85C151.77,94.45,157.7,105.66,148.47,111.59z"/>
		
			<ellipse transform="matrix(0.0652 -0.9979 0.9979 0.0652 -95.8015 157.6508)" class="st4" cx="36.25" cy="129.96" rx="26.38" ry="26.38"/>
		<g>
			<path class="st5" d="M58.97,216.41H26.05C12.21,216.41,1,205.2,1,191.37v0c0-12.85,4.36-25.32,12.37-35.36l34.92-43.8
				c7.22-9.06,18.5-13.9,30.05-12.89l39.61,3.47c13.27,1.16,24.69,9.84,29.36,22.31l31.37,88.11L58.97,216.41z"/>
			<path class="st4" d="M58.97,217.41H26.05C11.68,217.41,0,205.73,0,191.37c0-13.02,4.47-25.8,12.59-35.99l34.92-43.8
				c7.45-9.35,19.01-14.32,30.92-13.26l39.61,3.47c13.57,1.19,25.43,10.2,30.21,22.96l31.38,88.12c0.19,0.52-0.09,1.09-0.61,1.28
				c-0.52,0.18-1.09-0.09-1.28-0.61l-31.37-88.11c-4.51-12.03-15.7-20.53-28.51-21.65l-39.61-3.47
				c-11.24-0.98-22.15,3.7-29.18,12.52l-34.92,43.8C6.32,166.46,2,178.79,2,191.37c0,13.26,10.79,24.05,24.05,24.05h32.93
				c0.55,0,1,0.45,1,1C59.97,216.97,59.53,217.41,58.97,217.41z"/>
		</g>
		<g>
			<path class="st4" d="M113.07,197.46c-0.17,0-0.35-0.04-0.51-0.14c-0.47-0.28-0.63-0.9-0.35-1.37l24.94-41.9
				c0.28-0.47,0.9-0.63,1.37-0.35c0.47,0.28,0.63,0.9,0.35,1.37l-24.94,41.9C113.74,197.29,113.41,197.46,113.07,197.46z"/>
		</g>
		<g>
			<g>
				<path class="st5" d="M105.6,198.25c6.4,9.55,18.94,12.86,29.5,8.32l13.29-5.72l4.77,9.45c1.59,3.33,5.54,4.8,8.92,3.3
					c1.52-0.67,2.2-2.46,1.51-3.98l-5.7-11.52l0.1-0.03l8.17,13.1c1.88,3.18,5.96,4.28,9.19,2.48c1.46-0.81,1.97-2.65,1.14-4.1
					l-2.19-3.58l1.6,1.66c2.56,2.67,6.77,2.81,9.51,0.33h0c1.16-1.14,1.65-2.05,1.32-3.03l-20.11-21.61h-37.82l-10.25-0.3H45.72
					l-2.78,5.11c-8.26,15.22,6.62,33.49,22.68,27.04l25.23-11.02L105.6,198.25z"/>
				<path class="st4" d="M58.91,217.52c-5.23,0-10.25-2.26-14.04-6.51c-5.84-6.56-6.94-15.71-2.81-23.33l2.78-5.11
					c0.18-0.32,0.51-0.52,0.88-0.52h72.83l10.28,0.3h37.79c0.28,0,0.54,0.12,0.73,0.32l20.11,21.61c0.1,0.1,0.17,0.22,0.21,0.36
					c0.58,1.68-0.53,3.05-1.56,4.07c-2.36,2.14-5.6,2.61-8.32,1.45c0.15,0.65,0.14,1.32-0.04,1.97c-0.29,1.04-0.97,1.89-1.91,2.42
					c-3.73,2.07-8.35,0.82-10.53-2.85l-0.44-0.7c-0.01,0.44-0.1,0.87-0.26,1.29c-0.38,1.01-1.13,1.8-2.12,2.24
					c-3.9,1.73-8.39,0.06-10.23-3.79l-4.33-8.59l-12.43,5.35c-10.95,4.71-23.54,1.33-30.26-8.01l-14.01,5.63l-25.2,11.01
					C63.67,217.06,61.27,217.52,58.91,217.52z M46.31,184.04l-2.49,4.59c-3.73,6.86-2.73,15.12,2.55,21.04
					c4.93,5.53,12.17,7.29,18.89,4.59l25.2-11.01l14.78-5.94c0.44-0.18,0.94-0.02,1.2,0.37c6.06,9.05,17.95,12.39,28.27,7.96
					l13.29-5.72c0.49-0.21,1.05,0,1.29,0.47l4.77,9.44c1.38,2.89,4.72,4.12,7.63,2.84c0.49-0.22,0.86-0.61,1.05-1.12
					c0.19-0.5,0.17-1.04-0.05-1.53L157,198.54c-0.13-0.27-0.14-0.58-0.02-0.85c0.12-0.27,0.35-0.48,0.64-0.56l0.1-0.03
					c0.43-0.12,0.89,0.05,1.12,0.43l8.17,13.1c1.63,2.75,5.08,3.68,7.85,2.14c0.47-0.26,0.81-0.69,0.95-1.2
					c0.14-0.52,0.08-1.06-0.19-1.52l-2.18-3.55c-0.27-0.44-0.16-1,0.24-1.31c0.41-0.31,0.98-0.27,1.33,0.1l1.6,1.66
					c2.2,2.29,5.76,2.42,8.12,0.28c1.02-1,1.13-1.51,1.09-1.79l-19.64-21.11h-37.38l-10.28-0.3H46.31z"/>
			</g>
			<g>
				<path class="st4" d="M174.36,206.97c-0.35,0-0.69-0.18-0.87-0.51l-12.53-22.38c-0.27-0.48-0.1-1.09,0.38-1.36
					c0.48-0.27,1.09-0.1,1.36,0.38l12.53,22.38c0.27,0.48,0.1,1.09-0.38,1.36C174.69,206.93,174.52,206.97,174.36,206.97z"/>
			</g>
			<g>
				<path class="st4" d="M158.63,200.46c-0.37,0-0.73-0.21-0.9-0.56l-7.85-16.03c-0.24-0.5-0.04-1.09,0.46-1.34
					c0.5-0.24,1.1-0.04,1.34,0.46l7.85,16.03c0.24,0.5,0.04,1.09-0.46,1.34C158.92,200.42,158.77,200.46,158.63,200.46z"/>
			</g>
			<g>
				<path class="st5" d="M144.06,192.72l7.18,13.77c1.21,2.32,0.31,5.18-2.01,6.4l0,0c-2.32,1.21-5.18,0.31-6.4-2.01l-6.88-9.58
					l-5.54,1.55L144.06,192.72z"/>
				<path class="st4" d="M147.05,214.43c-2.05,0-4.03-1.1-5.06-3.02l-6.43-8.96l-4.87,1.36c-0.53,0.15-1.08-0.16-1.23-0.69
					c-0.15-0.53,0.16-1.08,0.69-1.23l5.54-1.55c0.41-0.11,0.84,0.04,1.08,0.38l6.88,9.58c0.03,0.04,0.05,0.08,0.07,0.12
					c0.46,0.89,1.24,1.54,2.19,1.84c0.95,0.3,1.97,0.21,2.85-0.25c0.89-0.46,1.54-1.24,1.84-2.19c0.3-0.95,0.21-1.97-0.25-2.85
					l-7.18-13.77c-0.26-0.49-0.07-1.09,0.42-1.35c0.49-0.25,1.09-0.07,1.35,0.42l7.18,13.77c1.46,2.81,0.37,6.28-2.43,7.75
					C148.85,214.22,147.94,214.43,147.05,214.43z"/>
			</g>
		</g>
		
			<ellipse transform="matrix(0.1602 -0.9871 0.9871 0.1602 60.2124 209.634)" class="st6" cx="153.3" cy="69.43" rx="17.29" ry="17.29"/>
		<path class="st6" d="M168.27,95.37c0,1.65-2.53,2.99-5.65,2.99c-3.12,0-5.65-1.34-5.65-2.99s2.53-2.99,5.65-2.99
			C165.74,92.38,168.27,93.72,168.27,95.37z"/>
		<g>
			<path class="st6" d="M168.27,96.37c-0.44,0-0.85-0.3-0.97-0.75c-0.14-0.53,0.18-1.08,0.71-1.22c4.53-1.19,7.01-2.93,7.36-5.17
				c0.75-4.78-7.91-11.46-11.31-13.64c-0.47-0.3-0.6-0.92-0.3-1.38c0.3-0.47,0.91-0.6,1.38-0.3c0.54,0.35,13.31,8.59,12.21,15.63
				c-0.49,3.1-3.46,5.39-8.83,6.79C168.44,96.36,168.35,96.37,168.27,96.37z"/>
		</g>
		<path class="st4" d="M279.94,215.75h-93.48l23.93-89.32c1.38-5.14,7.02-9.07,11.88-8.27l73.51,12.02c3.9,0.64,5.97,4.15,4.86,8.27
			L279.94,215.75z"/>
		<path class="st4" d="M120.71,215.75h121.63v-10.14H129.69c-4.96,0-8.98,4.02-8.98,8.98V215.75z"/>
		<g>
			
				<ellipse transform="matrix(0.9304 -0.3667 0.3667 0.9304 -8.9257 51.0409)" class="st4" cx="129.9" cy="49.02" rx="34.55" ry="34.55"/>
			
				<ellipse transform="matrix(0.363 -0.9318 0.9318 0.363 41.1988 103.285)" class="st4" cx="96.14" cy="21.51" rx="21.5" ry="21.5"/>
			<g>
				<path class="st5" d="M105.1,49.37c1.83,0.55,3.4,1.56,4.62,2.87l0-0.01c9.98,4.67,14.5,1.79,18.71-4.9
					c5.4-8.57,14.79-13.78,24.91-13.43l1.64,0.06c7.54,8.13,10.87,19.83,7.75,31.31l-4.12,15.15c-3.21,11.82-15.4,18.79-27.21,15.58
					l-3.25-0.88l-10.69,16.79l0,0c-7.24,8.54-20.68,7.62-26.69-1.82l-5.69-8.93l20.01-31.91c-1.79,0.53-3.74,0.6-5.67,0.08
					c-5.6-1.52-8.88-7.36-7.23-12.96C93.79,50.96,99.7,47.76,105.1,49.37z"/>
				<path class="st4" d="M104.83,118.78c-0.41,0-0.82-0.01-1.24-0.04c-5.64-0.38-10.62-3.34-13.66-8.11l-5.69-8.93
					c-0.21-0.33-0.21-0.74,0-1.07l18.8-29.98c-1.3,0.1-2.61-0.01-3.88-0.36c-2.98-0.81-5.44-2.74-6.95-5.43
					c-1.5-2.69-1.85-5.81-0.97-8.77c0.85-2.87,2.8-5.26,5.5-6.73c2.7-1.47,5.78-1.8,8.65-0.95c0,0,0,0,0,0
					c1.85,0.55,3.54,1.58,4.9,2.97c9.37,4.34,13.32,1.73,17.3-4.59c5.62-8.93,15.51-14.28,25.79-13.9l1.64,0.06
					c0.27,0.01,0.52,0.12,0.7,0.32c8.11,8.74,11.09,20.8,7.98,32.26l-4.12,15.15c-3.35,12.33-16.11,19.63-28.44,16.28l-2.54-0.69
					l-10.3,16.17c-0.02,0.04-0.05,0.08-0.08,0.11C114.83,116.55,110.01,118.78,104.83,118.78z M86.27,101.15l5.35,8.4
					c2.69,4.23,7.11,6.85,12.11,7.19c4.98,0.35,9.69-1.64,12.93-5.43l10.66-16.73c0.23-0.37,0.68-0.54,1.11-0.43l3.25,0.88
					c11.26,3.06,22.92-3.61,25.98-14.87l4.12-15.15c2.9-10.65,0.19-21.86-7.23-30.07l-1.22-0.04c-9.57-0.32-18.79,4.64-24.03,12.97
					c-4.25,6.75-9.26,10.23-19.84,5.33c-0.17-0.05-0.32-0.14-0.45-0.27c-1.14-1.22-2.58-2.12-4.17-2.59
					c-2.36-0.7-4.89-0.42-7.12,0.79c-2.23,1.21-3.84,3.18-4.54,5.54c-0.72,2.44-0.44,5.01,0.8,7.23c1.24,2.22,3.27,3.81,5.73,4.48
					c1.68,0.46,3.45,0.43,5.13-0.07c0.4-0.12,0.83,0.02,1.08,0.35c0.25,0.33,0.27,0.78,0.05,1.14L86.27,101.15z"/>
			</g>
			<path class="st4" d="M144.09,59.04c-0.68,1.92-2.36,3.07-3.74,2.58c-1.38-0.49-1.94-2.44-1.26-4.36
				c0.68-1.92,2.36-3.07,3.74-2.58C144.21,55.18,144.78,57.13,144.09,59.04z"/>
			<g>
				<path class="st4" d="M140.35,81.91c-0.89,0-1.8-0.27-2.77-0.8c-2.79-1.52-4.22-7.72-3.74-10.12c0.28-1.42,1.17-1.66,1.54-1.7
					c1.86-0.18,9,3.44,11.98,5c0.25,0.13,0.43,0.36,0.5,0.64c0.07,0.27,0.02,0.56-0.13,0.8C144.93,79.98,142.71,81.91,140.35,81.91z
					 M135.82,71.3c-0.13,0.5-0.14,1.81,0.34,3.66c0.56,2.16,1.51,3.92,2.38,4.39c1.74,0.94,3.38,1.25,6.91-3.81
					C141.51,73.52,137.14,71.52,135.82,71.3z"/>
			</g>
			<g>
				<path class="st4" d="M148.75,54.43c-0.31,0-0.62-0.15-0.82-0.42c-1.08-1.53-3.14-2.72-5.51-3.19c-1.95-0.39-3.88-0.25-5.41,0.39
					c-0.51,0.21-1.1-0.03-1.31-0.54s0.03-1.09,0.54-1.31c1.9-0.79,4.23-0.96,6.56-0.5c2.87,0.57,5.4,2.06,6.76,4
					c0.32,0.45,0.21,1.08-0.24,1.39C149.15,54.37,148.95,54.43,148.75,54.43z"/>
			</g>
			<path class="st4" d="M160.97,66.48c-0.8,1.87-2.53,2.92-3.88,2.35c-1.35-0.57-1.79-2.56-1-4.43c0.8-1.87,2.53-2.92,3.88-2.35
				C161.32,62.62,161.76,64.6,160.97,66.48z"/>
			<g>
				<path class="st4" d="M128.31,96.14c-0.09,0-0.19-0.01-0.28-0.04c-12.65-3.75-15.6-17.11-15.72-17.68
					c-0.11-0.54,0.23-1.07,0.77-1.18c0.54-0.11,1.07,0.23,1.19,0.77c0.03,0.13,2.84,12.77,14.33,16.17
					c0.53,0.16,0.83,0.71,0.67,1.24C129.14,95.86,128.74,96.14,128.31,96.14z"/>
			</g>
			<g>
				<path class="st4" d="M106.15,61.4c-0.09,0-0.18-0.01-0.26-0.04c-0.53-0.14-0.85-0.69-0.7-1.23c0.32-1.19,0.16-2.43-0.45-3.49
					c-0.61-1.07-1.6-1.83-2.79-2.15c-0.53-0.14-0.85-0.69-0.7-1.23c0.14-0.53,0.69-0.85,1.23-0.7c1.7,0.46,3.12,1.56,4,3.09
					c0.88,1.53,1.1,3.31,0.64,5.01C106.99,61.11,106.59,61.4,106.15,61.4z"/>
			</g>
			<g>
				<path class="st4" d="M152.57,72.7c-0.35,0-0.68-0.18-0.87-0.5c-0.04-0.07-4.13-7.37,0.94-13.42c1.76-2.1,3.73-3.23,5.86-3.36
					c3.1-0.2,5.32,1.84,5.42,1.93c0.4,0.38,0.43,1.01,0.05,1.41c-0.38,0.4-1.01,0.43-1.41,0.05c-0.03-0.03-1.74-1.55-3.96-1.4
					c-1.55,0.1-3.04,0.99-4.43,2.65c-4.19,4.99-0.77,11.08-0.74,11.14c0.27,0.48,0.11,1.09-0.37,1.37
					C152.91,72.66,152.74,72.7,152.57,72.7z"/>
			</g>
		</g>
		<g>
			<path class="st6" d="M107.68,52.91c-0.07,0-0.14-0.01-0.21-0.02c-0.54-0.11-0.89-0.64-0.77-1.18c0.05-0.24,1.26-5.91,4.31-12.72
				c2.83-6.33,7.84-14.83,15.63-19.35c6.31-3.66,13.48-4.23,21.32-1.7c0.53,0.17,0.81,0.73,0.64,1.26
				c-0.17,0.53-0.73,0.81-1.26,0.65c-7.28-2.35-13.91-1.84-19.7,1.52c-14.08,8.16-18.94,30.53-18.99,30.76
				C108.55,52.59,108.14,52.91,107.68,52.91z"/>
		</g>
		
			<ellipse transform="matrix(0.2298 -0.9732 0.9732 0.2298 25.2412 147.1461)" class="st6" cx="105.58" cy="57.63" rx="17.29" ry="17.29"/>
		<g>
			<path class="st4" d="M51.88,183.5c-0.17,0-0.35-0.04-0.51-0.14c-0.47-0.28-0.63-0.9-0.35-1.37l24.94-41.9
				c0.28-0.48,0.9-0.63,1.37-0.35c0.47,0.28,0.63,0.9,0.35,1.37l-24.94,41.9C52.55,183.32,52.22,183.5,51.88,183.5z"/>
		</g>
		<g>
			<path class="st4" d="M46.82,184.04H31.26c-0.55,0-1-0.45-1-1c0-0.55,0.45-1,1-1h15.56c0.55,0,1,0.45,1,1
				C47.82,183.59,47.38,184.04,46.82,184.04z"/>
		</g>
		<path class="st6" d="M263.2,19.88h-67.96c-3.13,0-5.67,2.54-5.67,5.67v55.44c0,3.13,2.54,5.67,5.67,5.67h10.85V99
			c0,2.37,2.56,3.85,4.61,2.66l16.16-15.01h36.34c3.13,0,5.67-2.54,5.67-5.67V25.55C268.86,22.42,266.33,19.88,263.2,19.88z"/>
		<g>
			<g>
				<path class="st5" d="M229.21,67.27c-7.43,0-13.47-6.04-13.47-13.47s6.04-13.47,13.47-13.47s13.47,6.04,13.47,13.47
					S236.64,67.27,229.21,67.27z M229.21,44.33c-5.22,0-9.47,4.25-9.47,9.47c0,5.22,4.25,9.47,9.47,9.47c5.22,0,9.47-4.25,9.47-9.47
					C238.69,48.58,234.44,44.33,229.21,44.33z"/>
			</g>
			<g>
				<rect x="227.21" y="30.86" class="st5" width="4" height="11.47"/>
			</g>
			<g>
				<rect x="227.21" y="65.27" class="st5" width="4" height="11.47"/>
			</g>
			<g>
				<rect x="206.27" y="51.8" class="st5" width="11.47" height="4"/>
			</g>
			<g>
				<rect x="240.69" y="51.8" class="st5" width="11.47" height="4"/>
			</g>
			<g>
				
					<rect x="211.31" y="63.97" transform="matrix(0.707 -0.7072 0.7072 0.707 16.9422 172.8332)" class="st5" width="11.47" height="4"/>
			</g>
			<g>
				
					<rect x="235.65" y="39.63" transform="matrix(0.7071 -0.7071 0.7071 0.7071 41.2617 182.8761)" class="st5" width="11.47" height="4"/>
			</g>
			<g>
				
					<rect x="215.04" y="35.9" transform="matrix(0.7069 -0.7073 0.7073 0.7069 34.1617 165.7194)" class="st5" width="4" height="11.47"/>
			</g>
			<g>
				
					<rect x="239.38" y="60.24" transform="matrix(0.7071 -0.7071 0.7071 0.7071 24.0422 189.9938)" class="st5" width="4" height="11.47"/>
			</g>
		</g>
	</g>
	
		<ellipse transform="matrix(0.3209 -0.9471 0.9471 0.3209 8.3903 355.1414)" class="st5" cx="251.83" cy="171.72" rx="9.6" ry="6.4"/>
</g>
</svg>
