<?xml version="1.0" encoding="utf-8"?>
<!-- Generator: Adobe Illustrator 25.0.0, SVG Export Plug-In . SVG Version: 6.00 Build 0)  -->
<svg version="1.1" xmlns="http://www.w3.org/2000/svg" xmlns:xlink="http://www.w3.org/1999/xlink" x="0px" y="0px"
	 viewBox="0 0 240.15 235.02" style="enable-background:new 0 0 240.15 235.02;" xml:space="preserve">
<style type="text/css">
	.st0{display:none;}
	.st1{display:inline;}
	.st2{clip-path:url(#SVGID_2_);fill:#FFFFFF;}
	.st3{fill:#E4F1F7;}
	.st4{fill:#080717;}
	.st5{fill:#FFFFFF;}
	.st6{fill:#FFB000;}
	.st7{fill:none;stroke:#000000;stroke-width:2;stroke-linecap:round;stroke-linejoin:round;stroke-miterlimit:10;}
	.st8{fill:none;stroke:#080717;stroke-width:2;stroke-linecap:round;stroke-linejoin:round;stroke-miterlimit:10;}
	.st9{fill:#070A17;}
</style>
<g id="Layer_2" class="st0">
	<g class="st1">
		<defs>
			<rect id="SVGID_1_" x="-5478.89" y="-429.23" width="6602.94" height="1370.62"/>
		</defs>
		<use xlink:href="#SVGID_1_"  style="overflow:visible;fill:#FFFFFF;"/>
		<clipPath id="SVGID_2_">
			<use xlink:href="#SVGID_1_"  style="overflow:visible;"/>
		</clipPath>
		<rect x="-5478.89" y="-429.23" class="st2" width="6602.94" height="1370.62"/>
	</g>
	<g class="st1">
		<rect x="-47.6" y="0.75" class="st3" width="302.93" height="234.11"/>
	</g>
</g>
<g id="_x3C_Layer_x3E_">
	<g>
		<path d="M0.7,63.15l38.46,88.9c1.46,3.38,4.98,5.4,8.64,4.95l53.62-6.55c5.53-0.68,8.85-6.5,6.61-11.6L74.04,61.46
			c-1.22-2.79-3.87-4.68-6.91-4.94l-58.1-4.96C2.77,51.03-1.8,57.38,0.7,63.15z"/>
		<path class="st6" d="M47.04,153.01c-1.43-0.26-2.63-1.21-3.2-2.54L5.38,61.57c-0.88-2.04,0.03-3.65,0.46-4.25
			c0.43-0.6,1.68-1.98,3.89-1.79l58.09,4.96c0.14,0.01,0.27,0.03,0.41,0.05c1.42,0.26,2.61,1.2,3.19,2.52l33.99,77.39
			c0.56,1.27,0.48,2.68-0.2,3.89c-0.68,1.2-1.87,1.99-3.24,2.16l-53.62,6.55C47.91,153.1,47.47,153.08,47.04,153.01z"/>
		<path class="st5" d="M125.25,136.22l-14.6-13.25L99.3,105.27c-1.81-2.82-4.89-4.59-8.24-4.74l-10.62-0.46l-1.99-3.08
			c-0.03-0.05-0.07-0.1-0.12-0.15l-4.77-4.99l-3.29-3.67c-0.8-0.89-1.98-1.29-3.16-1.06c-1.18,0.23-2.13,1.03-2.54,2.16
			c-0.83,2.27-0.51,4.81,0.87,6.79l11.44,16.53l-7.38-5.01c-0.8-0.54-1.76-0.76-2.72-0.61c-1.37,0.21-2.48,1.11-2.98,2.4
			c-0.5,1.29-0.27,2.7,0.64,3.82l9.52,10.4c3.5,3.82,7.95,6.68,12.88,8.28l1.91,0.62l7.81,1.95l10.28,16.76l3.88,6.15
			c0.18,0.29,0.5,0.47,0.84,0.47c0,0,0.01,0,0.01,0c0.34,0,0.66-0.17,0.84-0.46l12.99-19.83
			C125.69,137.11,125.62,136.56,125.25,136.22z"/>
		<path class="st6" d="M240.15,233.4l-3.83-21.85c-1.95-11.14-7.37-21.38-15.47-29.27l-13.52-13.17l-42.63,43.68l-4.56,20.61H240.15
			z"/>
		<g>
			<path class="st5" d="M45.57,167.55l-14.31-30.53l-18.13-14.93c-2.7-2.23-3.91-5.79-3.12-9.2l0.28-1.22l-1.84-2.42
				c-1.79-2.36-2.15-5.51-0.93-8.21l1.11-2.46L7.96,97.7c-2.1-2.83-2.56-6.55-1.2-9.8l3.17-7.58l4.98,13.35l16.73,13.47L27,95.36
				c-0.84-2.13-0.47-4.54,0.97-6.32l0,0c1.39-1.72,4.07-1.49,5.15,0.43l7.24,12.84c2.8,4.96,4.51,10.46,5.01,16.13l1.34,15
				l23.78,19.13L45.57,167.55z"/>
			<path class="st4" d="M45.57,168.56c-0.1,0-0.2-0.01-0.29-0.04c-0.27-0.08-0.5-0.28-0.62-0.54l-14.21-30.32l-17.95-14.79
				c-3.02-2.49-4.35-6.4-3.46-10.21l0.17-0.75l-1.56-2.04c-2.02-2.65-2.42-6.19-1.05-9.23l0.87-1.92L7.15,98.3
				c-2.31-3.1-2.81-7.23-1.33-10.79l3.17-7.58c0.16-0.38,0.54-0.61,0.95-0.62c0.41,0.01,0.78,0.27,0.93,0.66l4.88,13.1l13.55,10.91
				l-3.24-8.24c-0.97-2.46-0.54-5.26,1.12-7.32c0.86-1.07,2.19-1.64,3.56-1.52c1.37,0.11,2.58,0.89,3.26,2.09l7.24,12.84
				c2.89,5.12,4.62,10.68,5.14,16.54l1.3,14.57l23.45,18.86c0.26,0.21,0.4,0.53,0.37,0.85c-0.02,0.33-0.2,0.63-0.49,0.8
				l-24.93,14.99C45.93,168.51,45.75,168.56,45.57,168.56z M9.87,83.06l-2.18,5.22c-1.21,2.91-0.8,6.28,1.08,8.81l0.66,0.89
				C9.65,98.28,9.7,98.67,9.54,99l-1.11,2.46c-1.07,2.36-0.76,5.11,0.81,7.18l1.84,2.42c0.18,0.24,0.25,0.55,0.18,0.84l-0.28,1.22
				c-0.71,3.06,0.36,6.2,2.78,8.19l18.13,14.93c0.12,0.1,0.21,0.21,0.27,0.35l13.83,29.52l22.73-13.67l-22.66-18.22
				c-0.21-0.17-0.35-0.42-0.37-0.7l-1.34-15c-0.5-5.57-2.14-10.86-4.89-15.72l-7.24-12.84c-0.35-0.62-0.96-1.01-1.67-1.07
				c-0.71-0.07-1.37,0.22-1.82,0.78c-1.21,1.49-1.52,3.53-0.82,5.32l4.63,11.78c0.17,0.43,0.03,0.91-0.34,1.18
				c-0.37,0.27-0.87,0.26-1.23-0.03L14.27,94.46c-0.14-0.11-0.25-0.26-0.31-0.43L9.87,83.06z"/>
		</g>
		<g>
			<path class="st4" d="M117.88,51.05c-14.94-19.33,6.09-33.91,19.6-30.59c1.23,0.3,2.51-0.07,3.73-0.02
				c0.81,1.62,1.3,3.35,1.4,5.16C143.16,35.7,130.63,60.79,117.88,51.05z"/>
			<g>
				<g>
					<g>
						<g>
							<polygon class="st5" points="180.44,113.98 144.06,108.72 135.31,75.49 166.16,67.37 							"/>
							<path class="st4" d="M180.44,114.95c-0.05,0-0.09,0-0.14-0.01l-36.38-5.26c-0.38-0.06-0.7-0.34-0.8-0.71l-8.75-33.22
								c-0.14-0.52,0.17-1.05,0.69-1.18l30.84-8.12c0.5-0.13,1.02,0.16,1.17,0.65l14.28,46.61c0.1,0.32,0.03,0.66-0.19,0.91
								C180.99,114.82,180.72,114.95,180.44,114.95z M144.83,107.85l34.23,4.95L165.5,68.54l-29.01,7.64L144.83,107.85z"/>
						</g>
						<g>
							<path class="st5" d="M168.53,75.53c3.15-3.52,5.56-7.84,6.9-12.75c4.48-16.44-4.89-32.92-20.71-37.62
								c-25.95-7.71-36.3,14.57-36.83,19.57c-0.12,1.17-0.24,2.31-0.37,3.4c-0.43,1.81-0.69,3.63-0.8,5.43
								c-0.75,3.84-1.9,6.74-4.12,8.15c-3.39,2.15,5.46,30.32,26.38,23.1L168.53,75.53z"/>
							<path class="st4" d="M132.38,86.88c-5.8,0-13.52-2.49-18.91-13.7c-2.39-4.96-3.56-10.92-1.39-12.29
								c1.74-1.1,2.87-3.4,3.67-7.45c0.11-1.83,0.38-3.67,0.81-5.47c0.12-1.08,0.24-2.19,0.37-3.34
								c0.37-3.51,4.35-12.26,12.27-17.55c7.24-4.83,15.92-5.79,25.8-2.85c16.57,4.93,25.96,21.97,21.37,38.81
								c-1.35,4.95-3.74,9.37-7.11,13.14c-0.36,0.4-0.97,0.43-1.37,0.08c-0.4-0.36-0.43-0.97-0.08-1.37
								c3.17-3.54,5.42-7.7,6.69-12.36c4.31-15.81-4.5-31.82-20.05-36.44c-9.3-2.77-17.44-1.89-24.17,2.61
								c-7.88,5.26-11.17,13.79-11.42,16.14c-0.12,1.18-0.25,2.31-0.37,3.41c0,0.04-0.01,0.08-0.02,0.11
								c-0.41,1.74-0.67,3.51-0.78,5.27c0,0.04-0.01,0.09-0.02,0.13c-0.91,4.66-2.31,7.36-4.55,8.78c-0.71,0.65-0.17,6.2,3.34,12.11
								c7.26,12.21,17.03,11.04,22.21,9.25c0.51-0.17,1.06,0.09,1.23,0.6c0.17,0.51-0.09,1.06-0.6,1.23
								C137.92,86.2,135.42,86.88,132.38,86.88z"/>
						</g>
						<g>
							<path class="st4" d="M120.4,75.18c-0.4,0-0.77-0.25-0.91-0.64c-0.18-0.5,0.08-1.06,0.58-1.24c2.04-0.73,2.71-3.04,2.72-3.07
								c0.14-0.51,0.68-0.82,1.19-0.67c0.51,0.14,0.82,0.67,0.68,1.19c-0.04,0.13-0.93,3.3-3.93,4.37
								C120.62,75.16,120.51,75.18,120.4,75.18z"/>
						</g>
						<g>
							<path class="st4" d="M127.8,49.29c-0.49,0-0.91-0.37-0.96-0.87c-0.07-0.73-1.01-1.97-2.38-2.69c-0.82-0.43-2.44-1-4.18-0.05
								c-0.47,0.26-1.06,0.09-1.31-0.38c-0.26-0.47-0.09-1.06,0.38-1.32c1.87-1.03,4.01-1.02,6.01,0.03
								c1.86,0.97,3.26,2.71,3.41,4.21c0.05,0.53-0.33,1.01-0.87,1.06C127.86,49.28,127.83,49.29,127.8,49.29z"/>
						</g>
						<path class="st4" d="M122.57,54.6c-0.34,0.86-1.12,1.35-1.74,1.1c-0.62-0.25-0.84-1.14-0.49-2s1.12-1.35,1.74-1.1
							C122.69,52.85,122.91,53.75,122.57,54.6z"/>
						<path class="st4" d="M137.43,84.16l2.8,10.63c4.05-3.02,7.16-7.36,8.59-12.61c0.57-2.1,0.83-4.21,0.82-6.29
							C146.56,79.91,142.25,82.8,137.43,84.16z"/>
					</g>
				</g>
			</g>
			
				<ellipse transform="matrix(0.5085 -0.8611 0.8611 0.5085 66.9684 165.0341)" class="st4" cx="178.05" cy="23.85" rx="23.85" ry="23.85"/>
			<g>
				<path class="st4" d="M180.18,50.82c-5.84,0-11.44-2.04-15.96-5.85c-5.07-4.27-8.17-10.27-8.73-16.87l0,0
					c-0.56-6.61,1.48-13.04,5.76-18.1c4.27-5.07,10.27-8.17,16.87-8.73c6.61-0.56,13.04,1.48,18.1,5.76
					c5.07,4.27,8.17,10.27,8.73,16.87c1.16,13.64-8.99,25.67-22.63,26.83C181.61,50.79,180.89,50.82,180.18,50.82z M157.42,27.93
					c0.52,6.09,3.38,11.62,8.05,15.56c4.67,3.94,10.6,5.83,16.69,5.31c12.57-1.07,21.93-12.17,20.86-24.74
					c-0.52-6.09-3.38-11.62-8.05-15.56c-4.67-3.94-10.6-5.83-16.69-5.31c-6.09,0.52-11.62,3.38-15.56,8.05
					C158.79,15.92,156.91,21.84,157.42,27.93L157.42,27.93z"/>
			</g>
			<path class="st4" d="M144.15,47.63c3.62-8.41,11.96-14.44,21.97-14.45c11.7-0.01,21.83,8.75,23.54,20.32
				c2.03,13.74-7.94,26.14-21.57,27.3c-0.04,0-0.08,0.01-0.11,0.01c-5.86,0.47-11.31-3.06-13.56-8.49L144.15,47.63z"/>
			
				<ellipse transform="matrix(0.3718 -0.9283 0.9283 0.3718 60.9808 157.0049)" class="st4" cx="146.49" cy="33.45" rx="19.59" ry="19.59"/>
			
				<ellipse transform="matrix(0.9866 -0.163 0.163 0.9866 -7.6378 24.8838)" class="st5" cx="147.79" cy="58.98" rx="9.27" ry="9.27"/>
			<path class="st4" d="M159.35,49.84c0.1,1.12,0.11,2.22,0.05,3.31c-2.1,0.82-4.35,1.37-6.71,1.57
				c-13.13,1.12-24.67-8.62-25.79-21.75c-0.1-1.12-0.11-2.22-0.05-3.31c2.1-0.82,4.35-1.37,6.71-1.57
				C146.69,26.98,158.23,36.71,159.35,49.84z"/>
		</g>
		<path class="st4" d="M42.34,168.65l24.69-21.09l32.11,30.73l38.43-61.59c9.65-15.47,28.94-21.89,45.94-15.28h0
			c6.16,2.4,11.03,7.28,13.41,13.46l21.87,56.88l-16.88,15.11l-32.43,25.93c-5.76,4.61-14.05,4.19-19.32-0.98l-6.77-6.64
			l-24.66,22.42c-13.18,11.98-33.99,9.09-43.41-6.02L42.34,168.65z"/>
		<g>
			<path class="st5" d="M143.39,206.14c-0.2,0-0.41-0.06-0.58-0.19c-0.43-0.32-0.51-0.93-0.19-1.36l23.98-31.99
				c0.32-0.43,0.93-0.52,1.36-0.19c0.43,0.32,0.52,0.93,0.19,1.36l-23.98,31.99C143.98,206.01,143.69,206.14,143.39,206.14z"/>
		</g>
		<g>
			<path class="st5" d="M90.79,191.88c-0.18,0-0.37-0.05-0.53-0.16c-0.45-0.29-0.57-0.9-0.27-1.34l8.35-12.62
				c0.3-0.45,0.9-0.57,1.34-0.27c0.45,0.29,0.57,0.9,0.27,1.34l-8.35,12.62C91.42,191.72,91.11,191.88,90.79,191.88z"/>
		</g>
		<g>
			<g>
				<path class="st5" d="M84.68,108.48l-7.07-10.94l-4.79-5.02l-3.29-3.67c-1.2-1.33-3.38-0.91-4,0.77l0,0
					c-0.72,1.96-0.44,4.15,0.75,5.87l14.52,20.97l-11.85-8.04c-0.59-0.4-1.3-0.56-2-0.45l0,0c-2.14,0.33-3.11,2.86-1.75,4.54
					l9.52,10.4c3.39,3.7,7.67,6.46,12.44,8.01l1.84,0.6l8.21,2.05l10.49,17.1l3.88,6.15L84.68,108.48z"/>
				<path class="st4" d="M111.58,157.81c-0.34,0-0.66-0.17-0.85-0.47l-3.88-6.15l-10.28-16.76l-7.81-1.95l-1.91-0.62
					c-4.92-1.6-9.38-4.47-12.88-8.29l-9.52-10.4c-0.91-1.12-1.14-2.53-0.64-3.82c0.5-1.29,1.61-2.19,2.98-2.4
					c0.95-0.15,1.92,0.07,2.72,0.61l7.38,5.01L65.46,96.06c-1.38-1.99-1.7-4.53-0.87-6.79c0.41-1.12,1.36-1.93,2.54-2.16
					c1.18-0.22,2.36,0.17,3.16,1.06l3.29,3.67l4.77,4.99c0.04,0.05,0.08,0.1,0.12,0.15l7.07,10.94c0.3,0.47,0.17,1.09-0.3,1.4
					c-0.47,0.3-1.09,0.17-1.4-0.3l-7.02-10.86l-4.72-4.95l-3.31-3.69c-0.33-0.37-0.79-0.51-1.27-0.43
					c-0.48,0.09-0.85,0.41-1.02,0.87c-0.61,1.65-0.37,3.5,0.63,4.95l14.52,20.97c0.28,0.4,0.23,0.94-0.11,1.28
					c-0.34,0.34-0.88,0.4-1.28,0.12l-11.85-8.04c-0.38-0.26-0.83-0.36-1.28-0.29c-0.64,0.1-1.17,0.52-1.4,1.13
					c-0.23,0.61-0.13,1.27,0.28,1.78l9.48,10.35c3.26,3.56,7.42,6.24,12.01,7.73l1.84,0.6l8.14,2.03c0.26,0.06,0.48,0.23,0.62,0.45
					l10.49,17.1l3.87,6.14c0.3,0.47,0.16,1.09-0.32,1.39C111.95,157.76,111.76,157.81,111.58,157.81z"/>
			</g>
			<g>
				<path class="st5" d="M80.12,101.07l10.9,0.47c3.03,0.13,5.8,1.73,7.43,4.28l11.41,17.82l14.7,13.34L80.12,101.07z"/>
				<path class="st4" d="M124.57,137.95c-0.23,0-0.47-0.08-0.66-0.25l-14.7-13.34c-0.06-0.06-0.12-0.12-0.17-0.2l-11.41-17.82
					c-1.46-2.28-3.94-3.71-6.65-3.83l-10.9-0.47c-0.54-0.02-0.96-0.48-0.94-1.02c0.02-0.54,0.47-0.97,1.02-0.94l10.9,0.47
					c3.34,0.15,6.41,1.91,8.21,4.73L110.63,123l14.61,13.25c0.4,0.36,0.43,0.98,0.07,1.39
					C125.11,137.84,124.84,137.95,124.57,137.95z"/>
			</g>
			<g>
				<path class="st5" d="M89.7,107.74l-3.76-6.15L89.7,107.74z"/>
				<path class="st4" d="M89.7,108.72c-0.33,0-0.65-0.17-0.84-0.47l-3.76-6.16c-0.28-0.46-0.14-1.07,0.33-1.35
					c0.46-0.28,1.06-0.14,1.35,0.33l3.76,6.16c0.28,0.46,0.14,1.07-0.33,1.35C90.05,108.67,89.87,108.72,89.7,108.72z"/>
			</g>
			<g>
				<path class="st5" d="M94.65,107.74l-3.63-6.19L94.65,107.74z"/>
				<path class="st4" d="M94.65,108.72c-0.34,0-0.66-0.17-0.85-0.48l-3.63-6.19c-0.27-0.47-0.12-1.07,0.35-1.34
					c0.47-0.28,1.07-0.12,1.34,0.35l3.63,6.19c0.27,0.47,0.12,1.07-0.35,1.34C94.99,108.67,94.82,108.72,94.65,108.72z"/>
			</g>
		</g>
		<g>
			<path class="st5" d="M82.32,33.85H43.41c-2.39,0-4.32,1.94-4.32,4.32v28.1c0,2.39,1.94,4.32,4.32,4.32h4.32v8.65l9.73-8.65h24.86
				c2.39,0,4.32-1.94,4.32-4.32v-28.1C86.64,35.79,84.71,33.85,82.32,33.85z"/>
			<path class="st4" d="M47.73,80.26c-0.14,0-0.28-0.03-0.41-0.09c-0.36-0.16-0.6-0.52-0.6-0.92v-7.64h-3.31
				c-2.94,0-5.33-2.39-5.33-5.33v-28.1c0-2.94,2.39-5.33,5.33-5.33h38.91c2.94,0,5.33,2.39,5.33,5.33v28.1
				c0,2.94-2.39,5.33-5.33,5.33H57.85L48.4,80C48.22,80.17,47.98,80.26,47.73,80.26z M43.41,34.86c-1.83,0-3.31,1.49-3.31,3.31v28.1
				c0,1.83,1.49,3.31,3.31,3.31h4.32c0.56,0,1.01,0.45,1.01,1.01V77l8.05-7.15c0.18-0.17,0.42-0.26,0.67-0.26h24.86
				c1.83,0,3.31-1.49,3.31-3.31v-28.1c0-1.83-1.49-3.31-3.31-3.31H43.41z"/>
		</g>
		<g>
			<g>
				<rect x="47.79" y="51.14" class="st6" width="4.2" height="12.97"/>
			</g>
			<g>
				<rect x="56.44" y="57.63" class="st6" width="4.2" height="6.49"/>
			</g>
			<g>
				<rect x="65.09" y="40.34" class="st6" width="4.2" height="23.78"/>
			</g>
			<g>
				<rect x="73.73" y="46.82" class="st6" width="4.2" height="17.29"/>
			</g>
		</g>
	</g>
</g>
</svg>
